<svg width="720" height="540" viewBox="0 0 720 540" fill="none" xmlns="http://www.w3.org/2000/svg">
<rect width="720" height="540" fill="#DFCBF8"/>
<path fill-rule="evenodd" clip-rule="evenodd" d="M81.2792 88H68.4142L87.7118 107.298L81.2792 88ZM83.3874 88H96.6126L90 107.838L83.3874 88ZM98.7208 88H111.586L92.2882 107.298L98.7208 88ZM65.7929 85.7929L73.5858 78H75.2071H105.793H106.414L106.914 78.5L114.207 85.7929L115.414 87L90.7071 111.707L90 112.414L64.5858 87L65.7929 85.7929ZM68.4142 86L74 80.4142L79.5858 86H68.4142ZM84.4142 86L90 80.4142L95.5858 86H84.4142ZM100.414 86L106 80.4142L111.586 86H100.414ZM92.4142 80H103.586L98 85.5858L92.4142 80ZM82 85.5858L87.5858 80H76.4142L82 85.5858ZM17.4142 0L0.707107 16.7071L0 17.4142V0H17.4142ZM4.27924 0L0 12.8377V0H4.27924ZM14.5858 0L2.28825 12.2975L6.38743 0H14.5858ZM180 17.4142L162.586 0H180V17.4142ZM165.414 0L177.712 12.2975L173.613 0H165.414ZM180 12.8377L175.721 0H180V12.8377ZM0 163H15.7929H16.4142L16.9142 163.5L24.2071 170.793L25.4142 172L17.4142 180H0V163H0ZM0 173H6.61257L4.27924 180H0V173ZM14.5858 180L21.5858 173H8.72076L6.38743 180H14.5858ZM0 165.414L5.58579 171H0V165.414H0ZM10.4142 171L16 165.414L21.5858 171H10.4142ZM2.41421 165H13.5858L8 170.586L2.41421 165ZM180 163H165.207H163.586L155.793 170.793L154.586 172L162.586 180H180V163ZM165.414 180L158.414 173H171.279L173.613 180H165.414ZM180 173H173.387L175.721 180H180V173ZM158.414 171L164 165.414L169.586 171H158.414ZM180 165.414L174.414 171H180V165.414ZM172 170.586L177.586 165H166.414L172 170.586ZM152.933 25.6533L154.347 27.0675L120.406 61.0086L118.991 59.5944L152.933 25.6533ZM154.347 152.933L152.933 154.347L118.991 120.406L120.406 118.991L154.347 152.933ZM27.0675 154.347L25.6533 152.933L59.5944 118.991L61.0086 120.406L27.0675 154.347ZM25.6533 27.0675L27.0675 25.6533L61.0086 59.5944L59.5944 61.0086L25.6533 27.0675ZM0 85C2.20914 85 4 86.7909 4 89C4 91.2091 2.20914 93 0 93V85ZM180 85C177.791 85 176 86.7909 176 89C176 91.2091 177.791 93 180 93V85ZM94 0C94 2.20914 92.2091 4 90 4C87.7909 4 86 2.20914 86 0H94ZM94 180C94 177.791 92.2091 176 90 176C87.7909 176 86 177.791 86 180H94Z" fill="white"/>
<path fill-rule="evenodd" clip-rule="evenodd" d="M261.279 88H248.414L267.712 107.298L261.279 88ZM263.387 88H276.613L270 107.838L263.387 88ZM278.721 88H291.586L272.288 107.298L278.721 88ZM245.793 85.7929L253.586 78H255.207H285.793H286.414L286.914 78.5L294.207 85.7929L295.414 87L270.707 111.707L270 112.414L244.586 87L245.793 85.7929ZM248.414 86L254 80.4142L259.586 86H248.414ZM264.414 86L270 80.4142L275.586 86H264.414ZM280.414 86L286 80.4142L291.586 86H280.414ZM272.414 80H283.586L278 85.5858L272.414 80ZM262 85.5858L267.586 80H256.414L262 85.5858ZM197.414 0L180.707 16.7071L180 17.4142V0H197.414ZM184.279 0L180 12.8377V0H184.279ZM194.586 0L182.288 12.2975L186.387 0H194.586ZM360 17.4142L342.586 0H360V17.4142ZM345.414 0L357.712 12.2975L353.613 0H345.414ZM360 12.8377L355.721 0H360V12.8377ZM180 163H195.793H196.414L196.914 163.5L204.207 170.793L205.414 172L197.414 180H180V163V163ZM180 173H186.613L184.279 180H180V173ZM194.586 180L201.586 173H188.721L186.387 180H194.586ZM180 165.414L185.586 171H180V165.414H180ZM190.414 171L196 165.414L201.586 171H190.414ZM182.414 165H193.586L188 170.586L182.414 165ZM360 163H345.207H343.586L335.793 170.793L334.586 172L342.586 180H360V163ZM345.414 180L338.414 173H351.279L353.613 180H345.414ZM360 173H353.387L355.721 180H360V173ZM338.414 171L344 165.414L349.586 171H338.414ZM360 165.414L354.414 171H360V165.414ZM352 170.586L357.586 165H346.414L352 170.586ZM332.933 25.6533L334.347 27.0675L300.406 61.0086L298.991 59.5944L332.933 25.6533ZM334.347 152.933L332.933 154.347L298.991 120.406L300.406 118.991L334.347 152.933ZM207.067 154.347L205.653 152.933L239.594 118.991L241.009 120.406L207.067 154.347ZM205.653 27.0675L207.067 25.6533L241.009 59.5944L239.594 61.0086L205.653 27.0675ZM180 85C182.209 85 184 86.7909 184 89C184 91.2091 182.209 93 180 93V85ZM360 85C357.791 85 356 86.7909 356 89C356 91.2091 357.791 93 360 93V85ZM274 0C274 2.20914 272.209 4 270 4C267.791 4 266 2.20914 266 0H274ZM274 180C274 177.791 272.209 176 270 176C267.791 176 266 177.791 266 180H274Z" fill="white"/>
<path fill-rule="evenodd" clip-rule="evenodd" d="M81.2792 268H68.4142L87.7118 287.298L81.2792 268ZM83.3874 268H96.6126L90 287.838L83.3874 268ZM98.7208 268H111.586L92.2882 287.298L98.7208 268ZM65.7929 265.793L73.5858 258H75.2071H105.793H106.414L106.914 258.5L114.207 265.793L115.414 267L90.7071 291.707L90 292.414L64.5858 267L65.7929 265.793ZM68.4142 266L74 260.414L79.5858 266H68.4142ZM84.4142 266L90 260.414L95.5858 266H84.4142ZM100.414 266L106 260.414L111.586 266H100.414ZM92.4142 260H103.586L98 265.586L92.4142 260ZM82 265.586L87.5858 260H76.4142L82 265.586ZM17.4142 180L0.707107 196.707L0 197.414V180H17.4142ZM4.27924 180L0 192.838V180H4.27924ZM14.5858 180L2.28825 192.298L6.38743 180H14.5858ZM180 197.414L162.586 180H180V197.414ZM165.414 180L177.712 192.298L173.613 180H165.414ZM180 192.838L175.721 180H180V192.838ZM0 343H15.7929H16.4142L16.9142 343.5L24.2071 350.793L25.4142 352L17.4142 360H0V343H0ZM0 353H6.61257L4.27924 360H0V353ZM14.5858 360L21.5858 353H8.72076L6.38743 360H14.5858ZM0 345.414L5.58579 351H0V345.414H0ZM10.4142 351L16 345.414L21.5858 351H10.4142ZM2.41421 345H13.5858L8 350.586L2.41421 345ZM180 343H165.207H163.586L155.793 350.793L154.586 352L162.586 360H180V343ZM165.414 360L158.414 353H171.279L173.613 360H165.414ZM180 353H173.387L175.721 360H180V353ZM158.414 351L164 345.414L169.586 351H158.414ZM180 345.414L174.414 351H180V345.414ZM172 350.586L177.586 345H166.414L172 350.586ZM152.933 205.653L154.347 207.067L120.406 241.009L118.991 239.594L152.933 205.653ZM154.347 332.933L152.933 334.347L118.991 300.406L120.406 298.991L154.347 332.933ZM27.0675 334.347L25.6533 332.933L59.5944 298.991L61.0086 300.406L27.0675 334.347ZM25.6533 207.067L27.0675 205.653L61.0086 239.594L59.5944 241.009L25.6533 207.067ZM0 265C2.20914 265 4 266.791 4 269C4 271.209 2.20914 273 0 273V265ZM180 265C177.791 265 176 266.791 176 269C176 271.209 177.791 273 180 273V265ZM94 180C94 182.209 92.2091 184 90 184C87.7909 184 86 182.209 86 180H94ZM94 360C94 357.791 92.2091 356 90 356C87.7909 356 86 357.791 86 360H94Z" fill="white"/>
<path fill-rule="evenodd" clip-rule="evenodd" d="M261.279 268H248.414L267.712 287.298L261.279 268ZM263.387 268H276.613L270 287.838L263.387 268ZM278.721 268H291.586L272.288 287.298L278.721 268ZM245.793 265.793L253.586 258H255.207H285.793H286.414L286.914 258.5L294.207 265.793L295.414 267L270.707 291.707L270 292.414L244.586 267L245.793 265.793ZM248.414 266L254 260.414L259.586 266H248.414ZM264.414 266L270 260.414L275.586 266H264.414ZM280.414 266L286 260.414L291.586 266H280.414ZM272.414 260H283.586L278 265.586L272.414 260ZM262 265.586L267.586 260H256.414L262 265.586ZM197.414 180L180.707 196.707L180 197.414V180H197.414ZM184.279 180L180 192.838V180H184.279ZM194.586 180L182.288 192.298L186.387 180H194.586ZM360 197.414L342.586 180H360V197.414ZM345.414 180L357.712 192.298L353.613 180H345.414ZM360 192.838L355.721 180H360V192.838ZM180 343H195.793H196.414L196.914 343.5L204.207 350.793L205.414 352L197.414 360H180V343V343ZM180 353H186.613L184.279 360H180V353ZM194.586 360L201.586 353H188.721L186.387 360H194.586ZM180 345.414L185.586 351H180V345.414H180ZM190.414 351L196 345.414L201.586 351H190.414ZM182.414 345H193.586L188 350.586L182.414 345ZM360 343H345.207H343.586L335.793 350.793L334.586 352L342.586 360H360V343ZM345.414 360L338.414 353H351.279L353.613 360H345.414ZM360 353H353.387L355.721 360H360V353ZM338.414 351L344 345.414L349.586 351H338.414ZM360 345.414L354.414 351H360V345.414ZM352 350.586L357.586 345H346.414L352 350.586ZM332.933 205.653L334.347 207.067L300.406 241.009L298.991 239.594L332.933 205.653ZM334.347 332.933L332.933 334.347L298.991 300.406L300.406 298.991L334.347 332.933ZM207.067 334.347L205.653 332.933L239.594 298.991L241.009 300.406L207.067 334.347ZM205.653 207.067L207.067 205.653L241.009 239.594L239.594 241.009L205.653 207.067ZM180 265C182.209 265 184 266.791 184 269C184 271.209 182.209 273 180 273V265ZM360 265C357.791 265 356 266.791 356 269C356 271.209 357.791 273 360 273V265ZM274 180C274 182.209 272.209 184 270 184C267.791 184 266 182.209 266 180H274ZM274 360C274 357.791 272.209 356 270 356C267.791 356 266 357.791 266 360H274Z" fill="white"/>
<path fill-rule="evenodd" clip-rule="evenodd" d="M81.2792 448H68.4142L87.7118 467.298L81.2792 448ZM83.3874 448H96.6126L90 467.838L83.3874 448ZM98.7208 448H111.586L92.2882 467.298L98.7208 448ZM65.7929 445.793L73.5858 438H75.2071H105.793H106.414L106.914 438.5L114.207 445.793L115.414 447L90.7071 471.707L90 472.414L64.5858 447L65.7929 445.793ZM68.4142 446L74 440.414L79.5858 446H68.4142ZM84.4142 446L90 440.414L95.5858 446H84.4142ZM100.414 446L106 440.414L111.586 446H100.414ZM92.4142 440H103.586L98 445.586L92.4142 440ZM82 445.586L87.5858 440H76.4142L82 445.586ZM17.4142 360L0.707107 376.707L0 377.414V360H17.4142ZM4.27924 360L0 372.838V360H4.27924ZM14.5858 360L2.28825 372.298L6.38743 360H14.5858ZM180 377.414L162.586 360H180V377.414ZM165.414 360L177.712 372.298L173.613 360H165.414ZM180 372.838L175.721 360H180V372.838ZM0 523H15.7929H16.4142L16.9142 523.5L24.2071 530.793L25.4142 532L17.4142 540H0V523H0ZM0 533H6.61257L4.27924 540H0V533ZM14.5858 540L21.5858 533H8.72076L6.38743 540H14.5858ZM0 525.414L5.58579 531H0V525.414H0ZM10.4142 531L16 525.414L21.5858 531H10.4142ZM2.41421 525H13.5858L8 530.586L2.41421 525ZM180 523H165.207H163.586L155.793 530.793L154.586 532L162.586 540H180V523ZM165.414 540L158.414 533H171.279L173.613 540H165.414ZM180 533H173.387L175.721 540H180V533ZM158.414 531L164 525.414L169.586 531H158.414ZM180 525.414L174.414 531H180V525.414ZM172 530.586L177.586 525H166.414L172 530.586ZM152.933 385.653L154.347 387.067L120.406 421.009L118.991 419.594L152.933 385.653ZM154.347 512.933L152.933 514.347L118.991 480.406L120.406 478.991L154.347 512.933ZM27.0675 514.347L25.6533 512.933L59.5944 478.991L61.0086 480.406L27.0675 514.347ZM25.6533 387.067L27.0675 385.653L61.0086 419.594L59.5944 421.009L25.6533 387.067ZM0 445C2.20914 445 4 446.791 4 449C4 451.209 2.20914 453 0 453V445ZM180 445C177.791 445 176 446.791 176 449C176 451.209 177.791 453 180 453V445ZM94 360C94 362.209 92.2091 364 90 364C87.7909 364 86 362.209 86 360H94ZM94 540C94 537.791 92.2091 536 90 536C87.7909 536 86 537.791 86 540H94Z" fill="white"/>
<path fill-rule="evenodd" clip-rule="evenodd" d="M261.279 448H248.414L267.712 467.298L261.279 448ZM263.387 448H276.613L270 467.838L263.387 448ZM278.721 448H291.586L272.288 467.298L278.721 448ZM245.793 445.793L253.586 438H255.207H285.793H286.414L286.914 438.5L294.207 445.793L295.414 447L270.707 471.707L270 472.414L244.586 447L245.793 445.793ZM248.414 446L254 440.414L259.586 446H248.414ZM264.414 446L270 440.414L275.586 446H264.414ZM280.414 446L286 440.414L291.586 446H280.414ZM272.414 440H283.586L278 445.586L272.414 440ZM262 445.586L267.586 440H256.414L262 445.586ZM197.414 360L180.707 376.707L180 377.414V360H197.414ZM184.279 360L180 372.838V360H184.279ZM194.586 360L182.288 372.298L186.387 360H194.586ZM360 377.414L342.586 360H360V377.414ZM345.414 360L357.712 372.298L353.613 360H345.414ZM360 372.838L355.721 360H360V372.838ZM180 523H195.793H196.414L196.914 523.5L204.207 530.793L205.414 532L197.414 540H180V523V523ZM180 533H186.613L184.279 540H180V533ZM194.586 540L201.586 533H188.721L186.387 540H194.586ZM180 525.414L185.586 531H180V525.414H180ZM190.414 531L196 525.414L201.586 531H190.414ZM182.414 525H193.586L188 530.586L182.414 525ZM360 523H345.207H343.586L335.793 530.793L334.586 532L342.586 540H360V523ZM345.414 540L338.414 533H351.279L353.613 540H345.414ZM360 533H353.387L355.721 540H360V533ZM338.414 531L344 525.414L349.586 531H338.414ZM360 525.414L354.414 531H360V525.414ZM352 530.586L357.586 525H346.414L352 530.586ZM332.933 385.653L334.347 387.067L300.406 421.009L298.991 419.594L332.933 385.653ZM334.347 512.933L332.933 514.347L298.991 480.406L300.406 478.991L334.347 512.933ZM207.067 514.347L205.653 512.933L239.594 478.991L241.009 480.406L207.067 514.347ZM205.653 387.067L207.067 385.653L241.009 419.594L239.594 421.009L205.653 387.067ZM180 445C182.209 445 184 446.791 184 449C184 451.209 182.209 453 180 453V445ZM360 445C357.791 445 356 446.791 356 449C356 451.209 357.791 453 360 453V445ZM274 360C274 362.209 272.209 364 270 364C267.791 364 266 362.209 266 360H274ZM274 540C274 537.791 272.209 536 270 536C267.791 536 266 537.791 266 540H274Z" fill="white"/>
<path fill-rule="evenodd" clip-rule="evenodd" d="M441.279 88H428.414L447.712 107.298L441.279 88ZM443.387 88H456.613L450 107.838L443.387 88ZM458.721 88H471.586L452.288 107.298L458.721 88ZM425.793 85.7929L433.586 78H435.207H465.793H466.414L466.914 78.5L474.207 85.7929L475.414 87L450.707 111.707L450 112.414L424.586 87L425.793 85.7929ZM428.414 86L434 80.4142L439.586 86H428.414ZM444.414 86L450 80.4142L455.586 86H444.414ZM460.414 86L466 80.4142L471.586 86H460.414ZM452.414 80H463.586L458 85.5858L452.414 80ZM442 85.5858L447.586 80H436.414L442 85.5858ZM377.414 0L360.707 16.7071L360 17.4142V0H377.414ZM364.279 0L360 12.8377V0H364.279ZM374.586 0L362.288 12.2975L366.387 0H374.586ZM540 17.4142L522.586 0H540V17.4142ZM525.414 0L537.712 12.2975L533.613 0H525.414ZM540 12.8377L535.721 0H540V12.8377ZM360 163H375.793H376.414L376.914 163.5L384.207 170.793L385.414 172L377.414 180H360V163V163ZM360 173H366.613L364.279 180H360V173ZM374.586 180L381.586 173H368.721L366.387 180H374.586ZM360 165.414L365.586 171H360V165.414H360ZM370.414 171L376 165.414L381.586 171H370.414ZM362.414 165H373.586L368 170.586L362.414 165ZM540 163H525.207H523.586L515.793 170.793L514.586 172L522.586 180H540V163ZM525.414 180L518.414 173H531.279L533.613 180H525.414ZM540 173H533.387L535.721 180H540V173ZM518.414 171L524 165.414L529.586 171H518.414ZM540 165.414L534.414 171H540V165.414ZM532 170.586L537.586 165H526.414L532 170.586ZM512.933 25.6533L514.347 27.0675L480.406 61.0086L478.991 59.5944L512.933 25.6533ZM514.347 152.933L512.933 154.347L478.991 120.406L480.406 118.991L514.347 152.933ZM387.067 154.347L385.653 152.933L419.594 118.991L421.009 120.406L387.067 154.347ZM385.653 27.0675L387.067 25.6533L421.009 59.5944L419.594 61.0086L385.653 27.0675ZM360 85C362.209 85 364 86.7909 364 89C364 91.2091 362.209 93 360 93V85ZM540 85C537.791 85 536 86.7909 536 89C536 91.2091 537.791 93 540 93V85ZM454 0C454 2.20914 452.209 4 450 4C447.791 4 446 2.20914 446 0H454ZM454 180C454 177.791 452.209 176 450 176C447.791 176 446 177.791 446 180H454Z" fill="white"/>
<path fill-rule="evenodd" clip-rule="evenodd" d="M621.279 88H608.414L627.712 107.298L621.279 88ZM623.387 88H636.613L630 107.838L623.387 88ZM638.721 88H651.586L632.288 107.298L638.721 88ZM605.793 85.7929L613.586 78H615.207H645.793H646.414L646.914 78.5L654.207 85.7929L655.414 87L630.707 111.707L630 112.414L604.586 87L605.793 85.7929ZM608.414 86L614 80.4142L619.586 86H608.414ZM624.414 86L630 80.4142L635.586 86H624.414ZM640.414 86L646 80.4142L651.586 86H640.414ZM632.414 80H643.586L638 85.5858L632.414 80ZM622 85.5858L627.586 80H616.414L622 85.5858ZM557.414 0L540.707 16.7071L540 17.4142V0H557.414ZM544.279 0L540 12.8377V0H544.279ZM554.586 0L542.288 12.2975L546.387 0H554.586ZM720 17.4142L702.586 0H720V17.4142ZM705.414 0L717.712 12.2975L713.613 0H705.414ZM720 12.8377L715.721 0H720V12.8377ZM540 163H555.793H556.414L556.914 163.5L564.207 170.793L565.414 172L557.414 180H540V163V163ZM540 173H546.613L544.279 180H540V173ZM554.586 180L561.586 173H548.721L546.387 180H554.586ZM540 165.414L545.586 171H540V165.414H540ZM550.414 171L556 165.414L561.586 171H550.414ZM542.414 165H553.586L548 170.586L542.414 165ZM720 163H705.207H703.586L695.793 170.793L694.586 172L702.586 180H720V163ZM705.414 180L698.414 173H711.279L713.613 180H705.414ZM720 173H713.387L715.721 180H720V173ZM698.414 171L704 165.414L709.586 171H698.414ZM720 165.414L714.414 171H720V165.414ZM712 170.586L717.586 165H706.414L712 170.586ZM692.933 25.6533L694.347 27.0675L660.406 61.0086L658.991 59.5944L692.933 25.6533ZM694.347 152.933L692.933 154.347L658.991 120.406L660.406 118.991L694.347 152.933ZM567.067 154.347L565.653 152.933L599.594 118.991L601.009 120.406L567.067 154.347ZM565.653 27.0675L567.067 25.6533L601.009 59.5944L599.594 61.0086L565.653 27.0675ZM540 85C542.209 85 544 86.7909 544 89C544 91.2091 542.209 93 540 93V85ZM720 85C717.791 85 716 86.7909 716 89C716 91.2091 717.791 93 720 93V85ZM634 0C634 2.20914 632.209 4 630 4C627.791 4 626 2.20914 626 0H634ZM634 180C634 177.791 632.209 176 630 176C627.791 176 626 177.791 626 180H634Z" fill="white"/>
<path fill-rule="evenodd" clip-rule="evenodd" d="M441.279 268H428.414L447.712 287.298L441.279 268ZM443.387 268H456.613L450 287.838L443.387 268ZM458.721 268H471.586L452.288 287.298L458.721 268ZM425.793 265.793L433.586 258H435.207H465.793H466.414L466.914 258.5L474.207 265.793L475.414 267L450.707 291.707L450 292.414L424.586 267L425.793 265.793ZM428.414 266L434 260.414L439.586 266H428.414ZM444.414 266L450 260.414L455.586 266H444.414ZM460.414 266L466 260.414L471.586 266H460.414ZM452.414 260H463.586L458 265.586L452.414 260ZM442 265.586L447.586 260H436.414L442 265.586ZM377.414 180L360.707 196.707L360 197.414V180H377.414ZM364.279 180L360 192.838V180H364.279ZM374.586 180L362.288 192.298L366.387 180H374.586ZM540 197.414L522.586 180H540V197.414ZM525.414 180L537.712 192.298L533.613 180H525.414ZM540 192.838L535.721 180H540V192.838ZM360 343H375.793H376.414L376.914 343.5L384.207 350.793L385.414 352L377.414 360H360V343V343ZM360 353H366.613L364.279 360H360V353ZM374.586 360L381.586 353H368.721L366.387 360H374.586ZM360 345.414L365.586 351H360V345.414H360ZM370.414 351L376 345.414L381.586 351H370.414ZM362.414 345H373.586L368 350.586L362.414 345ZM540 343H525.207H523.586L515.793 350.793L514.586 352L522.586 360H540V343ZM525.414 360L518.414 353H531.279L533.613 360H525.414ZM540 353H533.387L535.721 360H540V353ZM518.414 351L524 345.414L529.586 351H518.414ZM540 345.414L534.414 351H540V345.414ZM532 350.586L537.586 345H526.414L532 350.586ZM512.933 205.653L514.347 207.067L480.406 241.009L478.991 239.594L512.933 205.653ZM514.347 332.933L512.933 334.347L478.991 300.406L480.406 298.991L514.347 332.933ZM387.067 334.347L385.653 332.933L419.594 298.991L421.009 300.406L387.067 334.347ZM385.653 207.067L387.067 205.653L421.009 239.594L419.594 241.009L385.653 207.067ZM360 265C362.209 265 364 266.791 364 269C364 271.209 362.209 273 360 273V265ZM540 265C537.791 265 536 266.791 536 269C536 271.209 537.791 273 540 273V265ZM454 180C454 182.209 452.209 184 450 184C447.791 184 446 182.209 446 180H454ZM454 360C454 357.791 452.209 356 450 356C447.791 356 446 357.791 446 360H454Z" fill="white"/>
<path fill-rule="evenodd" clip-rule="evenodd" d="M621.279 268H608.414L627.712 287.298L621.279 268ZM623.387 268H636.613L630 287.838L623.387 268ZM638.721 268H651.586L632.288 287.298L638.721 268ZM605.793 265.793L613.586 258H615.207H645.793H646.414L646.914 258.5L654.207 265.793L655.414 267L630.707 291.707L630 292.414L604.586 267L605.793 265.793ZM608.414 266L614 260.414L619.586 266H608.414ZM624.414 266L630 260.414L635.586 266H624.414ZM640.414 266L646 260.414L651.586 266H640.414ZM632.414 260H643.586L638 265.586L632.414 260ZM622 265.586L627.586 260H616.414L622 265.586ZM557.414 180L540.707 196.707L540 197.414V180H557.414ZM544.279 180L540 192.838V180H544.279ZM554.586 180L542.288 192.298L546.387 180H554.586ZM720 197.414L702.586 180H720V197.414ZM705.414 180L717.712 192.298L713.613 180H705.414ZM720 192.838L715.721 180H720V192.838ZM540 343H555.793H556.414L556.914 343.5L564.207 350.793L565.414 352L557.414 360H540V343V343ZM540 353H546.613L544.279 360H540V353ZM554.586 360L561.586 353H548.721L546.387 360H554.586ZM540 345.414L545.586 351H540V345.414H540ZM550.414 351L556 345.414L561.586 351H550.414ZM542.414 345H553.586L548 350.586L542.414 345ZM720 343H705.207H703.586L695.793 350.793L694.586 352L702.586 360H720V343ZM705.414 360L698.414 353H711.279L713.613 360H705.414ZM720 353H713.387L715.721 360H720V353ZM698.414 351L704 345.414L709.586 351H698.414ZM720 345.414L714.414 351H720V345.414ZM712 350.586L717.586 345H706.414L712 350.586ZM692.933 205.653L694.347 207.067L660.406 241.009L658.991 239.594L692.933 205.653ZM694.347 332.933L692.933 334.347L658.991 300.406L660.406 298.991L694.347 332.933ZM567.067 334.347L565.653 332.933L599.594 298.991L601.009 300.406L567.067 334.347ZM565.653 207.067L567.067 205.653L601.009 239.594L599.594 241.009L565.653 207.067ZM540 265C542.209 265 544 266.791 544 269C544 271.209 542.209 273 540 273V265ZM720 265C717.791 265 716 266.791 716 269C716 271.209 717.791 273 720 273V265ZM634 180C634 182.209 632.209 184 630 184C627.791 184 626 182.209 626 180H634ZM634 360C634 357.791 632.209 356 630 356C627.791 356 626 357.791 626 360H634Z" fill="white"/>
<path fill-rule="evenodd" clip-rule="evenodd" d="M441.279 448H428.414L447.712 467.298L441.279 448ZM443.387 448H456.613L450 467.838L443.387 448ZM458.721 448H471.586L452.288 467.298L458.721 448ZM425.793 445.793L433.586 438H435.207H465.793H466.414L466.914 438.5L474.207 445.793L475.414 447L450.707 471.707L450 472.414L424.586 447L425.793 445.793ZM428.414 446L434 440.414L439.586 446H428.414ZM444.414 446L450 440.414L455.586 446H444.414ZM460.414 446L466 440.414L471.586 446H460.414ZM452.414 440H463.586L458 445.586L452.414 440ZM442 445.586L447.586 440H436.414L442 445.586ZM377.414 360L360.707 376.707L360 377.414V360H377.414ZM364.279 360L360 372.838V360H364.279ZM374.586 360L362.288 372.298L366.387 360H374.586ZM540 377.414L522.586 360H540V377.414ZM525.414 360L537.712 372.298L533.613 360H525.414ZM540 372.838L535.721 360H540V372.838ZM360 523H375.793H376.414L376.914 523.5L384.207 530.793L385.414 532L377.414 540H360V523V523ZM360 533H366.613L364.279 540H360V533ZM374.586 540L381.586 533H368.721L366.387 540H374.586ZM360 525.414L365.586 531H360V525.414H360ZM370.414 531L376 525.414L381.586 531H370.414ZM362.414 525H373.586L368 530.586L362.414 525ZM540 523H525.207H523.586L515.793 530.793L514.586 532L522.586 540H540V523ZM525.414 540L518.414 533H531.279L533.613 540H525.414ZM540 533H533.387L535.721 540H540V533ZM518.414 531L524 525.414L529.586 531H518.414ZM540 525.414L534.414 531H540V525.414ZM532 530.586L537.586 525H526.414L532 530.586ZM512.933 385.653L514.347 387.067L480.406 421.009L478.991 419.594L512.933 385.653ZM514.347 512.933L512.933 514.347L478.991 480.406L480.406 478.991L514.347 512.933ZM387.067 514.347L385.653 512.933L419.594 478.991L421.009 480.406L387.067 514.347ZM385.653 387.067L387.067 385.653L421.009 419.594L419.594 421.009L385.653 387.067ZM360 445C362.209 445 364 446.791 364 449C364 451.209 362.209 453 360 453V445ZM540 445C537.791 445 536 446.791 536 449C536 451.209 537.791 453 540 453V445ZM454 360C454 362.209 452.209 364 450 364C447.791 364 446 362.209 446 360H454ZM454 540C454 537.791 452.209 536 450 536C447.791 536 446 537.791 446 540H454Z" fill="white"/>
<path fill-rule="evenodd" clip-rule="evenodd" d="M621.279 448H608.414L627.712 467.298L621.279 448ZM623.387 448H636.613L630 467.838L623.387 448ZM638.721 448H651.586L632.288 467.298L638.721 448ZM605.793 445.793L613.586 438H615.207H645.793H646.414L646.914 438.5L654.207 445.793L655.414 447L630.707 471.707L630 472.414L604.586 447L605.793 445.793ZM608.414 446L614 440.414L619.586 446H608.414ZM624.414 446L630 440.414L635.586 446H624.414ZM640.414 446L646 440.414L651.586 446H640.414ZM632.414 440H643.586L638 445.586L632.414 440ZM622 445.586L627.586 440H616.414L622 445.586ZM557.414 360L540.707 376.707L540 377.414V360H557.414ZM544.279 360L540 372.838V360H544.279ZM554.586 360L542.288 372.298L546.387 360H554.586ZM720 377.414L702.586 360H720V377.414ZM705.414 360L717.712 372.298L713.613 360H705.414ZM720 372.838L715.721 360H720V372.838ZM540 523H555.793H556.414L556.914 523.5L564.207 530.793L565.414 532L557.414 540H540V523V523ZM540 533H546.613L544.279 540H540V533ZM554.586 540L561.586 533H548.721L546.387 540H554.586ZM540 525.414L545.586 531H540V525.414H540ZM550.414 531L556 525.414L561.586 531H550.414ZM542.414 525H553.586L548 530.586L542.414 525ZM720 523H705.207H703.586L695.793 530.793L694.586 532L702.586 540H720V523ZM705.414 540L698.414 533H711.279L713.613 540H705.414ZM720 533H713.387L715.721 540H720V533ZM698.414 531L704 525.414L709.586 531H698.414ZM720 525.414L714.414 531H720V525.414ZM712 530.586L717.586 525H706.414L712 530.586ZM692.933 385.653L694.347 387.067L660.406 421.009L658.991 419.594L692.933 385.653ZM694.347 512.933L692.933 514.347L658.991 480.406L660.406 478.991L694.347 512.933ZM567.067 514.347L565.653 512.933L599.594 478.991L601.009 480.406L567.067 514.347ZM565.653 387.067L567.067 385.653L601.009 419.594L599.594 421.009L565.653 387.067ZM540 445C542.209 445 544 446.791 544 449C544 451.209 542.209 453 540 453V445ZM720 445C717.791 445 716 446.791 716 449C716 451.209 717.791 453 720 453V445ZM634 360C634 362.209 632.209 364 630 364C627.791 364 626 362.209 626 360H634ZM634 540C634 537.791 632.209 536 630 536C627.791 536 626 537.791 626 540H634Z" fill="white"/>
</svg>
