<svg width="234" height="234" viewBox="0 0 234 234" fill="none" xmlns="http://www.w3.org/2000/svg">
<path d="M141.215 86.0004C140.589 85.9913 139.971 86.1457 139.345 86.679C138.448 87.4843 137.804 87.618 138.254 88.9612C138.663 89.8569 138.44 90.6081 140.113 90.4938C140.306 92.6267 140.023 94.212 139.16 95.3161C137.843 95.6541 136.773 95.0051 135.637 94.6221C134.951 94.0112 133.872 93.7928 132.809 93.5578C131.05 93.3907 130.07 94.0006 129.271 94.7917L128.576 93.7275L126.629 92.324L126.984 90.0259L128.576 88.098V87.0337C125.044 86.975 121.16 86.8779 117.976 86.8641L117.621 87.9129C119.025 88.3476 120.329 88.412 121.854 89.3318C122.313 90.2196 123.041 91.8939 122.04 93.3882C120.943 93.709 120.186 93.5069 118.332 94.9614C118.13 95.6293 118.346 96.3622 117.266 96.9047C115.621 97.4164 113.663 97.7292 111.61 97.9689C109.428 98.1045 107.46 98.3121 104.905 98.3237C101.589 98.1939 99.9235 97.7676 97.1328 96.3803C95.6494 95.6282 94.0568 94.6938 91.4931 92.324L87.5994 89.6866C84.6629 88.6624 83.5123 89.352 83.7212 90.9204L86.3634 97.0898C86.3634 97.0898 85.8388 96.8284 84.7719 96.3803C83.705 95.9322 82.6307 95.1111 81.7744 94.9614C80.918 94.8116 79.7304 94.4172 78.5915 95.5012C77.4525 96.5852 77.3538 97.3348 77.5408 98.663C77.7278 99.9912 77.687 100.383 78.5915 101.485C79.4959 102.587 80.7083 103.034 81.9443 102.55C83.1804 102.065 83.5137 100.417 83.5358 99.5576C83.5579 98.6983 82.037 99.1103 82.0371 99.1103C82.1955 99.8672 82.2946 100.149 82.0371 100.437C81.7795 100.724 81.3865 100.8 81.0636 100.514C80.7408 100.227 80.4327 99.8131 80.5383 99.2028C80.6439 98.5926 80.8032 97.8346 81.7744 97.6142C82.7456 97.3939 83.1804 97.7949 84.4165 98.3237C85.6526 98.8525 86.7187 99.7272 86.7187 99.7272C86.7187 99.7272 87.7827 101.27 88.6656 103.429C89.5485 105.588 90.257 108.364 90.257 108.364L90.9523 111.711L91.1056 115.106C90.5585 113.768 90.0114 113.499 89.4643 113.09C88.7637 113.618 87.93 114.014 87.9708 115.283L88.1248 118.76C88.3424 119.81 88.9179 120.264 89.7162 120.348C90.2467 120.453 90.7772 119.597 91.3077 118.76V121.767V124.235L92.8992 124.929L93.7026 125.993L93.8571 132.81L91.3231 132.857C90.4604 132.886 90.3171 132.408 89.8244 132.163L89.33 133.304C89.7013 133.458 89.9276 134.088 91.1686 134.06L94.1043 134.013L94.3223 138.281L94.3533 134.013L96.8392 133.983L96.8083 132.795L94.676 132.733L94.5215 125.731L95.3713 121.058L95.5413 115.598L96.9628 113.3C99.6734 111.851 102.284 111.653 105.971 111.356C108.89 111.507 111.014 111.78 113.743 112.066C116.089 112.452 118.043 113.028 119.568 113.824C120.582 113.746 122.452 116.415 122.395 117.526C122.319 119.039 122.812 123.479 122.565 123.171C122.599 123.341 121.945 128.915 121.854 129.51C121.577 131.322 120.706 133.495 120.016 134.461C119.584 135.065 117.5 137.263 116.122 137.453C116.122 137.453 109.501 139.021 108.798 139.211C108.146 139.387 101.518 140.636 100.146 140.969C98.1783 141.447 95.0068 142.209 93.7799 142.203C93.7799 142.203 83.1746 143.182 81.249 143.437C77.2885 143.962 77.1248 145.884 77 147C93.4149 143.287 141.197 142.435 154.178 146.614C157.769 147.77 155.245 144.752 153.467 144.147C151.602 143.512 150.478 143.233 147.457 141.849C144.435 140.464 142.722 138.898 141.276 137.453C139.831 136.008 139.03 134.658 137.924 132.517C136.817 130.377 136.386 129.457 135.807 126.703C135.227 123.949 135.451 118.235 135.451 118.235C135.488 116.269 135.919 114.796 136.332 113.3C136.446 112.846 136.571 112.383 136.688 111.927L136.811 111.434C137.065 110.466 137.353 109.478 137.754 108.364L138.804 106.776C139.891 107.806 140.589 109.234 140.581 111.356C139.501 112.255 138.14 111.775 136.811 111.434L136.688 111.927C137.052 112.997 137.643 113.774 138.634 114.009C139.289 114.758 140.259 114.879 141.462 114.534C142.424 114.319 142.992 113.705 143.409 112.945C144.347 112.409 144.364 110.044 144.815 108.534C145.348 102.61 145.09 96.2988 143.934 89.8562C143.609 88.0106 142.922 87.2408 142.343 86.1546C141.967 86.07 141.59 86.0058 141.215 86.0004ZM90.7494 93.2123C94.0464 95.9628 98.0292 98.1047 102.568 99.2651C103.169 99.5162 103.571 100.188 102.363 99.9319C97.8578 98.889 93.2182 96.3903 90.2612 93.8022C89.9627 93.4552 90.2406 93.1168 90.7494 93.2123ZM129.718 95.9132C130.976 94.5725 132.365 94.2989 134.441 94.9338C135.704 95.3201 136.384 96.3989 135.876 96.2759C135.369 96.1529 135.081 95.7882 134.078 95.4416C131.967 94.7125 130.53 95.9973 130.226 96.2033C129.627 96.6101 129.676 95.8843 129.718 95.9132ZM133.85 119.853C133.75 118.563 133.875 115.315 135.157 111.731C135.898 109.661 136.93 109.047 136.52 109.835C136.11 110.622 135.921 110.671 135.409 112.338C134.159 116.412 134.326 118.908 134.311 119.86C134.295 120.812 133.949 121.143 133.85 119.853ZM143.063 94.7501C144.089 99.6182 143.862 102.626 143.121 107.039C143.093 107.688 142.481 108.23 142.303 107.01C142.848 102.48 142.946 99.1583 142.449 94.7326C142.672 94.3328 142.976 94.2406 143.063 94.7501Z" fill="#8C6AB8"/>
</svg>
