<svg width="234" height="234" viewBox="0 0 234 234" fill="none" xmlns="http://www.w3.org/2000/svg">
<path d="M90.8738 152.53C90.8738 152.53 94.2555 149.526 95.6508 148.705C97.0461 147.884 99.5085 147.08 101.298 146.784C103.087 146.489 104.797 146.685 107.467 146.708C110.137 146.732 116.08 145.849 117.473 145.13C118.866 144.41 120.98 140.743 122.014 139.873C123.049 139.003 124.066 138.708 125.117 138.642C126.168 138.577 127.448 139.873 128.893 140.596C130.337 141.318 131.552 141.334 133.637 141.039C135.721 140.743 137.527 140.661 138.397 141.055C139.267 141.449 140.186 142.303 140.925 142.303C141.664 142.303 142.501 143.009 142.961 143.501C143.42 143.994 143.388 144.7 143.158 144.897C142.928 145.094 142.87 144.967 141.71 144.642C140.549 144.317 139.574 144.457 137.995 144.782C136.417 145.107 136.37 145.432 135.117 146.128C133.863 146.825 132.563 147.289 130.613 148.125C128.663 148.96 125.784 149.61 123.138 150.585C120.491 151.56 107.119 156.9 104.426 157.318C101.733 157.736 97.5079 158.711 95.8828 159.036C94.2578 159.361 91.9827 159.314 90.1719 159.5C88.3611 159.686 88.2218 159.639 87.4325 159.268C86.6432 158.896 85.5753 158.757 84.786 158.479C83.9966 158.2 83.3002 157.504 82.0001 155.461C80.7001 153.418 83.2538 150.725 84.6931 149.1C86.1324 147.475 89.104 146.221 90.9612 145.199C92.8184 144.178 99.6901 140.881 101.083 140.278C102.476 139.674 104.194 138.931 104.705 137.26C105.215 135.588 104.705 134.195 104.844 132.57C104.983 130.945 105.355 130.667 105.587 128.717C105.819 126.767 105.355 127.742 105.308 125.374C105.262 123.006 104.642 119.614 103.713 116.642L103.5 115V114H118H131V115V116C130 118.5 129.167 122.546 129.121 124.914C129.074 127.282 128.61 126.307 128.842 128.257C129.074 130.207 129.446 130.485 129.585 132.111C129.724 133.736 129.214 135.129 129.724 136.8C130.235 138.472 131.953 139.214 133.346 139.818C134.739 140.422 141.611 143.718 143.468 144.74C145.325 145.761 148.297 147.015 149.736 148.64C151.175 150.265 153.729 152.958 152.429 155.001C151.129 157.044 150.432 157.74 149.643 158.019C148.854 158.297 147.786 158.437 146.997 158.808C146.207 159.18 146.068 159.226 144.257 159.04C142.446 158.855 140.171 158.901 138.546 158.576C136.921 158.251 132.696 157.276 130.003 156.858C127.31 156.44 113.938 151.101 111.292 150.126C108.645 149.151 105.766 148.501 103.816 147.665C101.866 146.829 100.566 146.365 99.3124 145.668C98.0588 144.972 98.0124 144.647 96.4338 144.322C94.8551 143.997 93.8801 143.857 92.7193 144.182C91.5585 144.507 91.5012 144.634 91.2713 144.437C91.0415 144.24 91.0087 143.534 91.4683 143.041C91.928 142.549 92.7652 141.843 93.5039 141.843C94.2426 141.843 95.1618 140.99 96.0319 140.596C96.9019 140.202 98.7076 140.284 100.792 140.579C102.877 140.875 104.092 140.858 105.537 140.136C106.981 139.414 108.262 138.117 109.312 138.182C110.363 138.248 111.381 138.544 112.415 139.414C113.449 140.284 115.563 143.95 116.956 144.67C118.349 145.39 124.292 146.272 126.962 146.249C129.632 146.225 131.342 146.029 133.131 146.325C134.921 146.62 137.383 147.424 138.778 148.245C140.174 149.066 143.555 152.07 143.555 152.07" fill="#8C6AB8"/>
<path d="M103.5 115C103 117.5 101.611 120.403 101.286 121.285C100.961 122.167 100.543 123.421 99.8929 124.303C99.2429 125.185 99.0107 126.068 98.825 126.996C98.6393 127.925 98.2214 129.178 97.4321 130.618C96.6428 132.057 93.9962 134.471 91.9069 136.7C89.8175 138.929 88.5058 140.774 87.554 142.783C86.6022 144.791 86.0566 145.754 85.8593 146.416C85.662 147.077 85.8593 147.994 86.0566 148.575C86.254 149.155 86.3004 150.327 86.1843 150.734C86.0682 151.14 85.7664 152.196 85.7664 152.916C85.7664 153.636 85.8477 153.589 85.6272 153.81C85.4066 154.03 85.0932 153.926 84.861 153.67C84.6289 153.415 84.42 152.881 84.4316 152.521C84.4432 152.161 84.4896 151.198 84.4896 150.792C84.4896 150.386 84.0253 149.608 83.7119 149.608C83.3985 149.608 83.2708 149.828 83.0851 150.246C82.8994 150.664 83.0038 151.43 83.2476 152.289C83.4913 153.148 84.536 153.763 84.6869 153.926C84.8378 154.088 84.7914 154.39 84.5941 154.448C84.3967 154.506 83.9673 154.529 83.0387 154.019C82.11 153.508 81.4716 152.475 81.4716 152.475L81.3555 152.254C81.3555 152.254 81.3207 152.603 81.3207 152.777C81.3207 152.951 81.3672 153.717 81.5181 154.495C81.669 155.272 81.9824 156.677 81.9591 157.106C81.9359 157.536 81.6341 157.652 81.4832 157.675C81.3323 157.698 81.0654 157.164 80.7287 156.48C80.3921 155.795 79.8001 153.856 79.8001 153.856L79.7537 153.543C79.7537 153.543 79.6724 153.879 79.6608 154.077C79.6492 154.274 79.5912 154.913 79.7537 155.644C79.9162 156.375 79.9975 157.211 79.8814 157.362C79.7653 157.513 79.4055 157.431 79.2197 157.292C79.034 157.153 78.5813 155.992 78.4188 155.47C78.2563 154.947 78.326 152.278 78.326 152.278L78.3492 151.86C78.3492 151.86 78.1286 152.254 77.9893 152.521C77.85 152.788 77.5947 153.218 77.2116 153.81C76.8286 154.402 76.1785 154.402 76.1321 154.332C76.0857 154.262 75.7955 154.158 76.2598 153.276C76.7241 152.394 77.8849 149.794 78.5349 148.633C79.1849 147.472 80.16 146.729 81.2279 145.197C82.2958 143.665 83.6422 141.715 85.2209 138.418C86.7995 135.122 87.1245 133.543 88.1924 131.128C89.2603 128.714 90.7925 126.207 92.464 124.025C94.1355 121.842 94.9249 118.917 95.6213 116.642C96.3178 114.367 96.2249 112.371 96.8749 109.306C97.525 106.242 98.0357 104.477 99.5679 102.667C101.1 100.856 104.118 100.902 105.65 100.949C107.183 100.995 107.461 100.392 109.829 98.9986C112.197 97.6057 112.022 95.2033 111.743 93.9497C111.781 94.0288 122.5 94 122.5 94C122.221 95.2536 122.427 97.2774 124.795 98.6703C127.163 100.063 127.442 100.667 128.974 100.62C130.506 100.574 133.524 100.527 135.057 102.338C136.589 104.149 137.099 105.913 137.749 108.978C138.4 112.042 138.307 114.039 139.003 116.314C139.7 118.589 140.489 121.514 142.16 123.696C143.832 125.879 145.364 128.386 146.432 130.8C147.5 133.215 147.825 134.793 149.404 138.09C150.982 141.386 152.329 143.336 153.397 144.869C154.464 146.401 155.439 147.144 156.09 148.304C156.74 149.465 157.9 152.065 158.365 152.948C158.829 153.83 158.539 153.934 158.492 154.004C158.446 154.073 157.796 154.073 157.413 153.481C157.03 152.889 156.774 152.46 156.635 152.193C156.496 151.926 156.275 151.531 156.275 151.531L156.298 151.949C156.298 151.949 156.368 154.619 156.206 155.141C156.043 155.664 155.59 156.824 155.405 156.964C155.219 157.103 154.859 157.184 154.743 157.033C154.627 156.882 154.708 156.047 154.871 155.315C155.033 154.584 154.975 153.946 154.964 153.748C154.952 153.551 154.871 153.214 154.871 153.214L154.824 153.528C154.824 153.528 154.232 155.466 153.896 156.151C153.559 156.836 153.292 157.37 153.141 157.347C152.99 157.324 152.688 157.208 152.665 156.778C152.642 156.349 152.955 154.944 153.106 154.166C153.257 153.389 153.304 152.623 153.304 152.448C153.304 152.274 153.269 151.926 153.269 151.926L153.153 152.147C153.153 152.147 152.514 153.18 151.586 153.69C150.657 154.201 150.228 154.178 150.03 154.12C149.833 154.062 149.787 153.76 149.937 153.598C150.088 153.435 151.133 152.82 151.377 151.961C151.621 151.102 151.725 150.336 151.539 149.918C151.354 149.5 151.226 149.28 150.913 149.28C150.599 149.28 150.135 150.057 150.135 150.463C150.135 150.87 150.181 151.833 150.193 152.193C150.204 152.553 149.996 153.087 149.763 153.342C149.531 153.598 149.218 153.702 148.997 153.481C148.777 153.261 148.858 153.307 148.858 152.588C148.858 151.868 148.556 150.812 148.44 150.405C148.324 149.999 148.37 148.827 148.568 148.246C148.765 147.666 148.962 146.749 148.765 146.087C148.568 145.426 148.022 144.462 147.07 142.454C146.119 140.446 144.807 138.6 142.718 136.372C140.628 134.143 137.982 131.729 137.192 130.289C136.403 128.85 135.985 127.596 135.799 126.668C135.614 125.739 135.382 124.857 134.731 123.975C134.081 123.093 133.664 121.839 133.339 120.957C133.014 120.075 132.044 116.831 131 115" fill="#8C6AB8"/>
<path d="M112.836 76.5759C111.523 77.6265 110.045 79.9247 109.881 81.3036C109.717 82.6825 109.947 84.3569 109.947 84.3569L110.308 85.0792C110.308 85.0792 109.651 84.6524 109.323 84.7181C108.995 84.7837 108.929 85.8672 109.06 86.4253C109.192 86.9834 109.586 87.4102 109.717 88.3295C109.848 89.2488 109.815 90.1024 110.341 90.562C110.866 91.0217 110.899 90.6277 111.129 90.8904C111.358 91.153 111.063 91.1858 111.227 92.1708C111.391 93.1557 111.654 94.2063 112.705 95.3554C113.755 96.5045 115.136 96.6471 117.305 96.6471C119.474 96.6471 120.576 96.5045 121.627 95.3554C122.678 94.2063 122.94 93.1557 123.104 92.1708C123.269 91.1858 122.973 91.153 123.203 90.8904C123.433 90.6277 123.466 91.0217 123.991 90.562C124.516 90.1024 124.483 89.2488 124.615 88.3295C124.746 87.4102 125.14 86.9834 125.271 86.4253C125.403 85.8672 125.337 84.7837 125.009 84.7181C124.68 84.6524 124.024 85.0792 124.024 85.0792L124.385 84.3569C124.385 84.3569 124.615 82.6825 124.45 81.3036C124.286 79.9247 122.809 77.6265 121.496 76.5759C120.182 75.5253 119.093 75 117.166 75C115.239 75 114.149 75.5253 112.836 76.5759Z" fill="#8C6AB8"/>
</svg>
