<svg width="234" height="234" viewBox="0 0 234 234" fill="none" xmlns="http://www.w3.org/2000/svg">
<path d="M107.232 79.0274C105.812 79.0631 102.165 79.361 101.47 79.498C100.781 79.6351 100.341 80.9994 100.27 83.2216C100.193 85.6464 100.65 87.4754 101.446 87.8925C101.63 87.9938 103.549 88.1308 105.955 88.2261C106.917 88.2619 107.719 88.2976 107.731 88.3095C107.743 88.3214 107.755 89.8049 107.761 91.5982L107.767 94.863L107.434 94.3983C106.911 93.6655 106.21 92.9029 105.177 91.9378C104.185 91.0143 103.597 90.5437 103.044 90.2339C102.866 90.1326 102.504 89.9062 102.242 89.7394C101.791 89.4415 101.262 89.1496 101.262 89.1913C101.262 89.2032 101.387 89.2985 101.535 89.4057C101.684 89.513 101.791 89.6143 101.779 89.6262C101.767 89.6381 101.559 89.6083 101.316 89.5487C100.918 89.4594 100.888 89.4474 101.042 89.3998C101.131 89.364 101.203 89.3164 101.203 89.2866C101.203 89.1376 100.84 89.1019 99.6583 89.1317C97.1277 89.2032 91.3477 90.0373 90.0528 90.5198C89.7854 90.6152 89.7439 90.6807 89.8745 90.7641C89.9221 90.7879 89.9696 90.8594 89.9933 90.9131C90.0468 91.068 90.4805 91.3539 91.318 91.8008C91.7279 92.0212 92.1556 92.2893 92.2744 92.3965C92.9754 93.0698 95.5594 96.2095 96.3139 97.3057L96.4386 97.4904L93.0467 98.1636C91.1755 98.539 89.4884 98.8964 89.2983 98.956C89.1023 99.0215 88.7934 99.1705 88.6152 99.2896C88.431 99.4088 88.1815 99.5577 88.0568 99.6173C87.7004 99.802 87.6172 99.9569 87.3915 100.88C86.9935 102.483 86.9163 103.222 86.9697 105.11C86.9875 105.897 87.0351 106.916 87.0707 107.374C87.1182 107.988 87.1123 108.667 87.0648 109.936C87.0232 110.889 87.0054 112.236 87.0291 112.945C87.0469 113.648 87.0707 114.655 87.0707 115.173L87.0826 116.126L86.4648 116.257C84.6827 116.633 83.2629 117.062 81.9323 117.628C80.5126 118.229 80.0195 118.628 79.7166 119.409C79.5384 119.88 79.2889 120.851 79.17 121.554C78.9443 122.864 78.9443 124.64 79.1641 128.018C79.2651 129.62 79.2829 130.395 79.271 133.32L79.2532 136.746L79.4195 137.121C79.9423 138.307 81.0888 139.403 83.1204 140.66C83.9758 141.19 85.3302 142.042 87.1539 143.192C91.4666 145.909 96.4267 148.453 102.284 150.931C104.345 151.807 106.169 152.504 109.026 153.511C111.39 154.345 112.032 154.554 112.62 154.679C112.858 154.732 113.279 154.834 113.559 154.899C114.26 155.072 115.127 155.024 116.648 154.744C118.537 154.387 118.941 154.274 125.885 152.016C131.837 150.085 137.427 147.887 142.429 145.504C143.231 145.122 144.342 144.628 144.894 144.402C150.365 142.197 152.694 140.97 154.101 139.546C154.547 139.099 154.589 139.04 154.755 138.533L154.933 137.997V133.976C154.933 131.765 154.957 129.192 154.987 128.256C155.04 126.415 154.927 123.758 154.761 122.805C154.606 121.941 154.315 121.28 153.894 120.827C153.638 120.553 153.953 120.678 146.367 117.824C144.567 117.145 143.629 116.764 143.646 116.716C143.658 116.674 143.712 116.448 143.759 116.21C144.08 114.649 144.044 112.7 143.617 108.059C143.581 107.714 143.557 107.243 143.557 107.005C143.557 106.165 143.361 105.629 142.845 105.063C142.381 104.556 141.401 104.038 140.29 103.71C140.047 103.639 139.298 103.395 138.627 103.174C137.956 102.948 136.791 102.602 136.043 102.411C133.94 101.863 129.419 100.404 128.956 100.124C128.202 99.665 127.465 99.0871 125.38 97.3355C124.905 96.9363 124.281 96.424 123.984 96.1976C123.693 95.9712 123.224 95.6137 122.944 95.3992C122.362 94.9464 120.948 94.2196 120.105 93.9396C119.196 93.6357 118.347 93.463 117.539 93.4272L116.796 93.3915L114.574 93.8443C113.351 94.0885 112.335 94.2851 112.323 94.2673C112.311 94.2553 112.335 93.9932 112.377 93.6894C112.543 92.5514 112.454 89.8049 112.216 88.4823L112.181 88.2976L113.452 88.2559C114.824 88.2142 117.586 88.0653 118.477 87.9878C118.964 87.9461 119.053 87.9163 119.202 87.7733C119.725 87.2729 120.057 85.7417 120.057 83.8114C120.057 81.5535 119.606 79.9032 118.893 79.5636C118.584 79.4146 115.471 79.1584 112.668 79.0452C111.361 78.9916 108.848 78.9857 107.232 79.0274ZM111.949 89.1257C111.943 89.5964 111.925 90.1266 111.895 90.3054C111.866 90.5318 111.848 90.2696 111.842 89.4534C111.842 88.7087 111.86 88.2797 111.895 88.2797C111.931 88.2797 111.955 88.6014 111.949 89.1257ZM90.3141 90.9369C90.2963 90.9548 90.2428 90.9607 90.2013 90.9428C90.1537 90.925 90.1716 90.9071 90.2369 90.9071C90.3022 90.9011 90.3379 90.919 90.3141 90.9369ZM108.082 94.3566C108.076 95.0596 108.07 95.0775 108.034 94.6545C107.969 93.9515 107.969 93.4213 108.034 93.5225C108.064 93.5702 108.088 93.9455 108.082 94.3566ZM88.3716 99.8199C88.235 99.939 88.039 100.148 87.9499 100.273C87.7598 100.535 87.7301 100.523 87.8667 100.261C87.9618 100.076 88.4667 99.5994 88.5677 99.5994C88.6033 99.5994 88.5142 99.7007 88.3716 99.8199ZM87.8608 100.046C87.8073 100.13 87.7538 100.195 87.736 100.195C87.7063 100.195 87.7657 100.088 87.8548 99.9688C87.9558 99.8377 87.9618 99.8914 87.8608 100.046Z" fill="#8C6AB8"/>
</svg>
