<svg width="234" height="234" viewBox="0 0 234 234" fill="none" xmlns="http://www.w3.org/2000/svg">
<path d="M142 98.5072C142 118.091 122.301 125.014 98 125.014C94.6474 125.014 90.3867 125.251 87.2489 125.014C85.8518 124.909 83.3724 129.785 77.8915 133.323C71.6823 137.331 65.9948 137.141 64.552 136.883C64.552 136.883 66.9056 134.761 69.5295 130.356C72.1394 125.974 72.4352 121.883 71.1223 121.418C60.7073 117.724 53.9999 110.743 54 98.5072C54.0001 77.5388 73.6995 72 98 72C122.301 72 142 78.9235 142 98.5072Z" fill="#8C6AB8"/>
<path d="M65.5336 101.56C65.5336 100.972 66.1696 100.588 67.0696 100.588C67.5016 100.588 67.9096 100.66 68.2936 100.78C68.3056 100.936 68.3056 101.08 68.3056 101.2C68.3056 101.992 68.0056 102.508 66.9976 102.508C66.1336 102.508 65.5336 102.172 65.5336 101.56ZM69.1696 93.76H68.0896C68.1136 93.964 68.1376 94.288 68.1376 94.492V95.98C67.7656 95.992 67.3816 96.004 67.0096 96.004C66.2896 96.004 65.6536 95.968 64.9696 95.908V96.808C65.6776 96.856 66.3016 96.892 66.9856 96.892C67.3696 96.892 67.7536 96.88 68.1376 96.868C68.1496 97.852 68.2216 99.028 68.2576 99.952C67.9096 99.88 67.5376 99.844 67.1416 99.844C65.5696 99.844 64.6696 100.648 64.6696 101.656C64.6696 102.736 65.5576 103.372 67.1656 103.372C68.7856 103.372 69.2416 102.424 69.2416 101.44C69.2416 101.356 69.2416 101.272 69.2416 101.188C69.8536 101.536 70.4536 102.016 71.0536 102.58L71.5816 101.776C70.9576 101.212 70.1776 100.612 69.2056 100.228C69.1576 99.22 69.0736 98.02 69.0616 96.808C69.7816 96.76 70.4776 96.688 71.1376 96.58V95.656C70.5016 95.776 69.7936 95.872 69.0616 95.932C69.0736 95.368 69.0856 94.804 69.0976 94.48C69.1096 94.24 69.1336 94 69.1696 93.76ZM63.2416 93.832L62.1856 93.748C62.1856 94 62.1496 94.324 62.1136 94.6C61.9576 95.596 61.5616 97.888 61.5616 99.652C61.5616 101.272 61.7776 102.592 62.0176 103.444L62.8576 103.384C62.8456 103.252 62.8336 103.084 62.8336 102.964C62.8216 102.82 62.8456 102.592 62.8816 102.424C63.0016 101.836 63.4456 100.612 63.7336 99.772L63.2416 99.388C63.0376 99.88 62.7496 100.612 62.5576 101.152C62.4736 100.564 62.4376 100.06 62.4376 99.484C62.4376 98.14 62.7976 95.764 63.0376 94.648C63.0736 94.432 63.1696 94.036 63.2416 93.832ZM79.4296 94.72L78.7456 95.008C79.1416 95.56 79.5616 96.316 79.8736 96.952L80.5816 96.628C80.2936 96.052 79.7296 95.152 79.4296 94.72ZM80.9776 94.108L80.3056 94.42C80.7136 94.948 81.1576 95.692 81.4696 96.316L82.1656 95.98C81.8776 95.428 81.3016 94.528 80.9776 94.108ZM76.1056 93.736L74.8936 93.724C74.9656 94.072 75.0016 94.504 75.0016 94.948C75.0016 96.196 74.8696 99.244 74.8696 101.02C74.8696 102.976 76.0696 103.696 77.7976 103.696C80.4256 103.696 81.9736 102.184 82.8016 101.044L82.1176 100.228C81.2656 101.476 80.0176 102.712 77.8216 102.712C76.6816 102.712 75.8536 102.244 75.8536 100.924C75.8536 99.136 75.9496 96.292 75.9976 94.948C76.0096 94.552 76.0456 94.132 76.1056 93.736ZM92.2096 93.712L91.1776 93.616C91.1776 93.892 91.1416 94.288 91.1056 94.528C91.0576 94.816 90.9856 95.104 90.9136 95.404C89.8696 95.416 88.8496 95.656 87.8296 96.256C87.7216 95.92 87.6136 95.596 87.5416 95.32C87.4576 94.984 87.3616 94.588 87.3016 94.252L86.3056 94.576C86.4496 94.888 86.5936 95.284 86.7016 95.656C86.8096 96.016 86.9296 96.388 87.0616 96.76C85.9696 97.648 85.2136 99.1 85.2136 100.48C85.2136 101.884 85.9696 102.64 86.8816 102.64C87.7816 102.64 88.5136 102.04 89.2576 101.14C89.4376 101.392 89.6296 101.62 89.8216 101.836L90.5776 101.212C90.3256 100.972 90.0736 100.684 89.8336 100.372C90.5176 99.388 91.1296 97.816 91.5856 96.292C93.1336 96.556 94.1056 97.732 94.1056 99.292C94.1056 101.14 92.7136 102.46 90.2056 102.676L90.7696 103.528C93.3376 103.168 95.0536 101.716 95.0536 99.328C95.0536 97.264 93.7336 95.788 91.8136 95.476C91.8856 95.188 91.9456 94.912 92.0056 94.648C92.0536 94.42 92.1256 94.012 92.2096 93.712ZM86.0776 100.408C86.0776 99.472 86.5816 98.368 87.3736 97.624C87.7216 98.536 88.1056 99.388 88.4536 99.928C88.5496 100.084 88.6336 100.24 88.7296 100.384C88.2016 101.092 87.5656 101.692 86.9776 101.692C86.4376 101.692 86.0776 101.2 86.0776 100.408ZM89.0416 99.172C88.7536 98.692 88.4056 97.888 88.1056 97.06C88.8976 96.568 89.7496 96.28 90.6856 96.232C90.3136 97.468 89.7976 98.716 89.2816 99.568C89.1976 99.436 89.1136 99.304 89.0416 99.172ZM99.2536 101.74C99.2536 101.188 99.8776 100.744 101.018 100.744C101.414 100.744 101.81 100.78 102.182 100.864C102.182 101.176 102.194 101.464 102.194 101.668C102.194 102.496 101.606 102.712 100.922 102.712C99.7336 102.712 99.2536 102.292 99.2536 101.74ZM103.058 93.472H102.038C102.062 93.64 102.086 93.988 102.086 94.192C102.086 94.444 102.086 94.732 102.086 95.044C101.894 95.044 101.714 95.044 101.534 95.044C100.73 95.044 99.2416 94.924 98.4616 94.78L98.4736 95.668C99.2296 95.752 100.706 95.872 101.546 95.872C101.726 95.872 101.906 95.872 102.074 95.872C102.074 96.364 102.074 96.892 102.074 97.372C102.074 97.432 102.074 97.492 102.074 97.552C101.858 97.552 101.642 97.552 101.426 97.552C100.634 97.552 99.2656 97.468 98.4016 97.324L98.4136 98.224C99.2776 98.32 100.598 98.392 101.414 98.392C101.642 98.392 101.87 98.392 102.098 98.392C102.11 98.908 102.134 99.484 102.146 100.024C101.822 99.976 101.486 99.952 101.138 99.952C99.4096 99.952 98.3656 100.696 98.3656 101.788C98.3656 102.94 99.3016 103.552 101.03 103.552C102.59 103.552 103.142 102.7 103.142 101.872C103.142 101.68 103.13 101.428 103.118 101.128C104.318 101.56 105.314 102.292 106.022 102.94L106.574 102.088C105.89 101.524 104.666 100.648 103.07 100.216C103.046 99.64 103.01 98.992 102.986 98.368C104.126 98.332 105.182 98.236 106.31 98.092L106.322 97.192C105.23 97.36 104.138 97.468 102.974 97.516C102.974 97.468 102.974 97.42 102.974 97.372C102.974 96.928 102.974 96.364 102.974 95.836C104.126 95.776 105.266 95.668 106.214 95.56L106.226 94.684C105.146 94.852 104.054 94.96 102.974 95.008C102.974 94.696 102.986 94.432 102.986 94.276C102.998 93.928 103.022 93.688 103.058 93.472ZM112.262 93.652L111.05 93.64C111.122 93.988 111.146 94.42 111.146 94.864C111.146 96.124 111.026 99.16 111.026 100.936C111.026 102.892 112.214 103.612 113.942 103.612C116.582 103.612 118.13 102.1 118.958 100.96L118.274 100.144C117.41 101.392 116.174 102.628 113.978 102.628C112.838 102.628 112.01 102.16 112.01 100.84C112.01 99.052 112.094 96.22 112.154 94.864C112.166 94.468 112.202 94.048 112.262 93.652ZM120.838 95.032L120.946 96.076C122.242 95.8 125.302 95.512 126.586 95.368C125.482 96.028 124.342 97.552 124.342 99.424C124.342 102.1 126.874 103.288 129.094 103.372L129.442 102.376C127.486 102.304 125.302 101.56 125.302 99.208C125.302 97.792 126.346 95.968 128.05 95.416C128.662 95.236 129.718 95.224 130.402 95.224V94.264C129.598 94.3 128.47 94.36 127.162 94.48C124.954 94.66 122.686 94.888 121.906 94.972C121.678 94.996 121.294 95.02 120.838 95.032Z" fill="white"/>
<path d="M109 130.614C109 146.582 125.118 152.227 145 152.227C147.743 152.227 151.229 152.42 153.796 152.227C154.939 152.141 156.968 156.117 161.452 159.002C166.533 162.27 171.186 162.115 172.367 161.905C172.367 161.905 170.441 160.174 168.294 156.582C166.159 153.01 165.917 149.674 166.991 149.294C175.512 146.283 181 140.59 181 130.614C181 113.516 164.882 109 145 109C125.118 109 109 114.645 109 130.614Z" fill="#8C6AB8"/>
<path d="M173.436 160.715L173.437 160.715L173.437 160.716L173.438 160.717L173.439 160.718L173.439 160.718L175.874 162.907L172.646 163.48C171.123 163.751 166.05 163.861 160.587 160.347C158.16 158.786 156.417 156.941 155.183 155.571C155.03 155.402 154.89 155.245 154.759 155.099C154.335 154.625 154.015 154.266 153.734 153.996C153.668 153.933 153.614 153.884 153.571 153.846C151.823 153.953 149.682 153.908 147.714 153.867C146.745 153.847 145.818 153.827 145 153.827C134.954 153.827 125.652 152.409 118.803 148.826C111.843 145.186 107.4 139.282 107.4 130.614C107.4 121.946 111.843 116.041 118.803 112.401C125.652 108.819 134.954 107.4 145 107.4C155.004 107.4 164.314 108.526 171.173 111.965C174.63 113.698 177.508 116.04 179.516 119.157C181.527 122.279 182.6 126.078 182.6 130.614C182.6 135.914 181.134 140.198 178.44 143.565C175.854 146.798 172.229 149.072 167.975 150.64C167.96 150.834 167.966 151.122 168.022 151.511C168.18 152.598 168.69 154.126 169.667 155.761C170.691 157.474 171.656 158.733 172.354 159.554C172.703 159.965 172.986 160.265 173.175 160.458C173.269 160.555 173.341 160.624 173.385 160.667C173.408 160.688 173.423 160.703 173.432 160.711L173.436 160.715ZM153.435 153.74C153.427 153.736 153.428 153.737 153.437 153.742C153.437 153.741 153.436 153.741 153.435 153.74ZM168.02 150.378C168.02 150.378 168.018 150.383 168.014 150.395C168.018 150.385 168.02 150.379 168.02 150.378Z" stroke="white" stroke-opacity="0.94" stroke-width="3.2"/>
<path d="M126.245 125.382L126.374 125.376L126.754 132.308C126.633 132.476 126.247 132.628 125.594 132.765C125.442 132.796 125.329 132.812 125.254 132.812L125.09 132.513L125.571 125.529C125.754 125.439 125.979 125.39 126.245 125.382ZM126.901 123.619C126.901 123.876 126.809 124.093 126.625 124.269C126.438 124.449 126.249 124.538 126.057 124.538C125.87 124.538 125.717 124.515 125.6 124.468C125.487 124.417 125.387 124.351 125.301 124.269C125.118 124.089 125.026 123.872 125.026 123.619C125.026 123.369 125.118 123.152 125.301 122.968C125.485 122.785 125.708 122.693 125.969 122.693C126.219 122.693 126.438 122.785 126.625 122.968C126.809 123.144 126.901 123.361 126.901 123.619ZM136.674 131.177C136.737 131.204 136.815 131.218 136.909 131.218C137.002 131.218 137.159 131.191 137.377 131.136L137.307 131.863H134.079L134.184 131.218C134.563 131.218 134.821 131.117 134.958 130.913C135.071 130.738 135.127 130.415 135.127 129.947V127.609H130.803V130.286C130.803 130.704 130.821 130.956 130.856 131.042C130.895 131.124 130.938 131.175 130.985 131.195C131.036 131.21 131.114 131.218 131.219 131.218C131.415 131.218 131.637 131.187 131.887 131.124L131.799 131.863H128.5L128.6 131.218C128.991 131.218 129.247 131.132 129.368 130.96C129.477 130.812 129.532 130.513 129.532 130.064V124.708C129.532 123.954 129.366 123.578 129.034 123.578C128.893 123.578 128.741 123.595 128.577 123.63L128.647 122.898H131.77L131.682 123.578C131.502 123.578 131.356 123.587 131.243 123.607C131.129 123.626 131.04 123.675 130.973 123.753C130.86 123.894 130.803 124.238 130.803 124.785V126.87H135.127V124.749C135.127 124.257 135.1 123.953 135.045 123.835C134.995 123.718 134.938 123.646 134.875 123.619C134.813 123.591 134.723 123.578 134.606 123.578C134.422 123.578 134.227 123.601 134.02 123.648L134.131 122.898H137.389L137.307 123.578C136.963 123.578 136.731 123.65 136.61 123.794C136.465 123.962 136.393 124.283 136.393 124.755V130.351C136.393 130.82 136.487 131.095 136.674 131.177ZM138.643 128.324C138.643 127.796 138.741 127.312 138.936 126.87C139.131 126.425 139.393 126.046 139.721 125.734C140.397 125.097 141.227 124.779 142.211 124.779C143.165 124.779 143.92 125.095 144.479 125.728C145.014 126.333 145.282 127.122 145.282 128.095C145.282 129.201 144.934 130.124 144.239 130.867C143.555 131.589 142.713 131.951 141.713 131.951C140.729 131.951 139.961 131.601 139.411 130.902C138.899 130.257 138.643 129.398 138.643 128.324ZM141.977 131.206C142.274 131.206 142.536 131.154 142.762 131.048C142.993 130.943 143.192 130.781 143.36 130.562C143.727 130.097 143.911 129.425 143.911 128.546C143.911 127.609 143.731 126.865 143.372 126.314C143.008 125.763 142.514 125.488 141.889 125.488C141.338 125.488 140.891 125.703 140.547 126.132C140.168 126.605 139.979 127.283 139.979 128.165C139.979 129.083 140.157 129.816 140.512 130.363C140.875 130.925 141.364 131.206 141.977 131.206ZM148.756 121.872C148.674 122.298 148.633 123.154 148.633 124.439V124.861L148.645 130.468C148.645 130.788 148.668 130.988 148.715 131.066C148.79 131.183 148.92 131.242 149.108 131.242C149.37 131.242 149.598 131.22 149.793 131.177L149.7 131.863H146.307L146.407 131.242C146.813 131.242 147.073 131.197 147.186 131.107C147.303 131.017 147.377 130.925 147.409 130.831C147.444 130.734 147.461 130.615 147.461 130.474V123.865C147.461 123.533 147.44 123.326 147.397 123.244C147.358 123.161 147.321 123.101 147.286 123.062C147.254 123.019 147.204 122.986 147.133 122.962C147.067 122.935 146.989 122.917 146.899 122.91C146.774 122.894 146.567 122.886 146.278 122.886L146.348 122.218L148.756 121.872ZM155.963 126.759L155.87 129.87C155.87 130.288 155.997 130.589 156.25 130.773C156.426 130.902 156.651 130.966 156.924 130.966C156.909 131.165 156.829 131.345 156.684 131.505C156.43 131.786 156.223 131.949 156.063 131.992C155.821 131.992 155.592 131.91 155.377 131.745C155.167 131.581 155.002 131.341 154.885 131.025C154.44 131.447 153.895 131.745 153.25 131.921C153.071 131.972 152.86 131.997 152.618 131.997C152.379 131.997 152.124 131.953 151.85 131.863C151.581 131.769 151.354 131.638 151.17 131.47C150.799 131.13 150.614 130.667 150.614 130.081C150.614 129.37 151.012 128.818 151.809 128.423C152.551 128.056 153.528 127.872 154.739 127.872H154.803C154.803 127.626 154.799 127.386 154.792 127.152L154.786 126.917C154.766 126.445 154.596 126.085 154.276 125.839C154.022 125.644 153.709 125.546 153.338 125.546C152.967 125.546 152.668 125.646 152.442 125.845C152.215 126.04 152.102 126.324 152.102 126.695C152.102 126.831 152.118 126.978 152.149 127.134H151.1L151.059 127.122C151.047 127.06 151.036 126.994 151.024 126.923C150.989 126.755 150.959 126.581 150.936 126.402C150.917 126.218 150.907 126.097 150.907 126.038C150.907 125.953 150.922 125.89 150.954 125.851C151.965 125.136 152.956 124.779 153.924 124.779C154.87 124.779 155.493 125.122 155.793 125.81C155.907 126.064 155.963 126.38 155.963 126.759ZM154.739 130.099C154.766 129.607 154.786 129.079 154.797 128.517C154.754 128.501 154.624 128.494 154.405 128.494C154.19 128.494 153.917 128.529 153.584 128.599C153.256 128.665 152.969 128.763 152.723 128.892C152.2 129.169 151.938 129.54 151.938 130.005C151.938 130.329 152.043 130.601 152.254 130.82C152.469 131.038 152.747 131.148 153.086 131.148C153.508 131.148 153.942 130.958 154.387 130.579C154.52 130.466 154.637 130.347 154.739 130.222V130.099ZM158.706 129.343L158.577 129.349L158.196 122.417C158.317 122.249 158.704 122.097 159.356 121.96C159.508 121.929 159.622 121.913 159.696 121.913L159.86 122.212L159.379 129.197C159.196 129.286 158.971 129.335 158.706 129.343ZM158.049 131.107C158.049 130.849 158.141 130.632 158.325 130.456C158.512 130.277 158.7 130.187 158.887 130.187C159.079 130.187 159.231 130.212 159.344 130.263C159.461 130.31 159.563 130.374 159.649 130.456C159.833 130.636 159.924 130.853 159.924 131.107C159.924 131.357 159.833 131.574 159.649 131.757C159.465 131.941 159.243 132.033 158.981 132.033C158.731 132.033 158.512 131.941 158.325 131.757C158.141 131.581 158.049 131.365 158.049 131.107Z" fill="white"/>
</svg>
