<svg width="234" height="234" viewBox="0 0 234 234" fill="none" xmlns="http://www.w3.org/2000/svg">
<path d="M101.026 95.0921C90.1197 96.2625 80.6548 97.2811 80.0011 97.3615C78.7833 97.5044 78.3535 97.6474 78.1923 97.9422C78.058 98.1924 78.5057 98.5319 79.249 98.7463C79.5803 98.8446 84.2814 100.113 89.6988 101.57C95.1163 103.026 99.6293 104.241 99.7278 104.286C99.898 104.357 99.9159 104.616 100.274 112.657C100.471 117.223 100.623 120.975 100.614 120.984C100.605 121.002 97.7579 120.43 94.3014 119.716C88.2124 118.447 88.0064 118.393 87.693 118.125C87.3169 117.795 86.5379 117.428 86.0812 117.366C85.8932 117.339 85.6156 117.375 85.4455 117.446L85.1321 117.58L78.1028 114.596C74.2345 112.952 70.7154 111.487 70.2676 111.344C68.2081 110.647 66.1486 111.219 64.0801 113.059C62.7727 114.221 61.8415 115.588 61.3042 117.116C60.955 118.116 60.9013 119.51 61.1699 120.502C61.6355 122.208 62.6653 123.468 64.1875 124.21C64.492 124.362 68.0648 125.505 72.1212 126.756L79.4907 129.034L79.9922 129.517L80.4936 130.008L80.1713 130.098C79.9922 130.151 79.3743 130.294 78.7833 130.419C77.664 130.66 77.2342 130.839 76.6343 131.313C76.4283 131.473 76.0522 131.733 75.7925 131.902C75.318 132.197 75.1478 132.438 75.1478 132.832C75.1478 132.948 75.0672 133.108 74.9777 133.189C74.7001 133.439 74.5658 133.841 74.7001 134.002C74.7986 134.118 74.7538 134.136 74.4136 134.136C73.9031 134.136 72.6227 133.913 72.1391 133.752C71.8973 133.662 71.575 133.636 71.1273 133.671C70.3751 133.725 70.393 133.85 71.1631 133.913C71.4586 133.93 72.0227 134.038 72.4167 134.145C72.8823 134.261 73.5808 134.35 74.4315 134.395C75.5955 134.449 75.7746 134.484 76.1955 134.699C76.4462 134.833 76.688 134.985 76.7238 135.038C76.8671 135.28 77.5297 135.476 78.2371 135.485H78.9535L78.2371 135.842C77.8521 136.03 77.4849 136.191 77.4223 136.191C77.3685 136.191 77.27 136.253 77.2073 136.325C77.1447 136.396 76.9477 136.495 76.7686 136.548C76.5895 136.593 76.3656 136.691 76.2671 136.754C76.1149 136.87 76.1418 136.879 76.5089 136.87C76.7417 136.861 76.9924 136.79 77.082 136.727C77.2163 136.602 77.2253 136.611 77.1715 136.816L77.1178 137.04L77.2253 136.825C77.2969 136.682 77.7446 136.423 78.6311 135.994L79.9385 135.36L80.8518 135.414C82.186 135.485 82.786 135.378 83.8157 134.86C84.2903 134.618 85.0246 134.315 85.4455 134.181C86.4125 133.868 86.8513 133.645 87.1647 133.314L87.4154 133.046L93.9253 136.781C97.5161 138.827 100.677 140.605 100.964 140.721C101.617 140.989 102.701 141.078 103.363 140.926C105.477 140.444 107.832 138.237 109.291 135.378C109.497 134.958 109.694 134.681 109.757 134.708C110.205 134.878 111.861 135.342 112.936 135.601C116.509 136.468 119.84 136.879 124.084 136.968C130.352 137.102 136.092 136.253 140.372 134.565C144.205 133.055 146.479 131.045 146.801 128.882C146.855 128.552 147.285 123.513 147.76 117.679C148.234 111.844 148.646 107.055 148.664 107.029C148.736 106.966 157.413 104.473 157.574 104.473C157.663 104.473 157.807 104.67 157.95 104.974C158.138 105.385 158.183 105.662 158.227 106.43C158.272 107.502 158.218 108.217 157.663 114.033C157.153 119.358 157.18 119.126 157.045 119.126C156.983 119.126 156.857 119.206 156.759 119.314C156.625 119.457 156.616 119.528 156.705 119.662C156.795 119.805 156.786 119.85 156.625 119.939C156.32 120.1 156.096 120.743 155.998 121.78C155.872 123.084 155.416 125.514 155.156 126.354C154.789 127.489 154.861 127.846 155.487 128.105C156.105 128.355 157.251 128.436 157.592 128.248C157.86 128.114 157.959 127.489 157.878 126.443C157.824 125.603 157.887 123.611 158.03 121.654C158.102 120.779 158.039 120.386 157.789 120.127C157.627 119.948 157.618 119.912 157.744 119.787C157.932 119.608 157.923 119.582 157.663 119.305L157.448 119.081L157.798 116.088C158.836 107.261 158.89 105.912 158.299 104.715L158.093 104.295L158.55 104.161C158.8 104.08 161.666 103.258 164.916 102.32C168.167 101.382 171.211 100.498 171.677 100.355C173.253 99.881 173.566 99.4879 172.725 99.0501C172.375 98.8714 173.226 98.9786 157.484 97.156C127.836 93.7162 122.007 93.0461 121.442 93.0014C121.039 92.9657 114.888 93.6001 101.026 95.0921ZM86.8334 117.768C87.4423 118.054 87.7915 118.367 87.4065 118.286C87.2901 118.259 86.914 118.179 86.5827 118.099C86.2514 118.027 85.8484 117.902 85.6872 117.822C85.4276 117.679 85.4186 117.661 85.5798 117.598C85.92 117.464 86.2961 117.518 86.8334 117.768ZM80.8608 129.454C81.6488 129.696 81.6846 129.767 81.0399 129.883C80.7354 129.937 80.6638 129.91 80.3235 129.588C80.1086 129.392 79.9743 129.222 80.0191 129.222C80.0549 129.222 80.4399 129.329 80.8608 129.454Z" fill="#8C6AB8"/>
</svg>
