<svg width="256" height="256" viewBox="0 0 256 256" fill="none" xmlns="http://www.w3.org/2000/svg">
<path d="M256 128C256 198.692 198.692 256 128 256C57.3076 256 0 198.692 0 128C0 57.3076 57.3076 0 128 0C198.692 0 256 57.3076 256 128ZM1.02087 128C1.02087 198.129 57.8714 254.979 128 254.979C198.129 254.979 254.979 198.129 254.979 128C254.979 57.8714 198.129 1.02087 128 1.02087C57.8714 1.02087 1.02087 57.8714 1.02087 128Z" fill="#8C6AB8" fill-opacity="0.6"/>
<path d="M92.8 92.8H163.2V163.2H92.8V92.8Z" stroke="#8C6AB8" stroke-width="1.6"/>
<path d="M146.909 144.072L146.906 144.071L145.214 143.345L145.213 143.345C142.795 142.314 140.845 141.178 139.497 139.661C138.165 138.161 137.391 136.254 137.391 133.61C137.391 131.205 138.305 129.106 139.92 127.605C141.537 126.103 143.887 125.173 146.8 125.173C148.894 125.173 150.654 125.537 152.15 126.351C153.533 127.103 154.724 128.257 155.748 129.93L151.322 132.771C150.795 131.922 150.222 131.275 149.547 130.827C148.747 130.296 147.847 130.074 146.8 130.074C145.702 130.074 144.766 130.423 144.099 131.04C143.43 131.659 143.062 132.519 143.062 133.473C143.062 134.619 143.429 135.47 144.217 136.187C144.964 136.867 146.08 137.415 147.524 138.04L147.525 138.041L149.217 138.766C149.217 138.766 149.217 138.766 149.217 138.766C152.079 139.993 154.245 141.204 155.701 142.767C157.134 144.306 157.908 146.22 157.908 148.935C157.908 151.836 156.775 154.046 154.9 155.543C153.012 157.05 150.329 157.863 147.197 157.863C141.324 157.863 137.505 155.182 135.535 151.635L140.201 148.924C140.889 149.974 141.695 150.91 142.713 151.605C143.872 152.397 145.277 152.859 147.04 152.859C148.52 152.859 149.781 152.489 150.686 151.818C151.601 151.139 152.134 150.16 152.134 149.022C152.134 148.372 152.005 147.805 151.742 147.3C151.481 146.798 151.101 146.383 150.637 146.019C149.73 145.307 148.43 144.738 146.909 144.072ZM116.285 149.53C116.734 150.309 117.213 151.063 117.824 151.646C118.577 152.363 119.522 152.817 120.819 152.817C121.981 152.817 123.054 152.592 123.822 151.809C124.586 151.031 124.945 149.808 124.945 148.065V125.559H130.71V148.157C130.71 151.561 129.715 153.962 128.064 155.517C126.408 157.076 124.021 157.851 121.107 157.851C116.125 157.851 113.187 155.4 111.61 152.361L116.285 149.53Z" stroke="#8C6AB8"/>
</svg>
