<svg width="256" height="256" viewBox="0 0 256 256" fill="none" xmlns="http://www.w3.org/2000/svg">
<path d="M256 128C256 198.692 198.692 256 128 256C57.3076 256 0 198.692 0 128C0 57.3076 57.3076 0 128 0C198.692 0 256 57.3076 256 128ZM1.02087 128C1.02087 198.129 57.8714 254.979 128 254.979C198.129 254.979 254.979 198.129 254.979 128C254.979 57.8714 198.129 1.02087 128 1.02087C57.8714 1.02087 1.02087 57.8714 1.02087 128Z" fill="#8C6AB8" fill-opacity="0.6"/>
<path d="M107.744 103.265L118.765 93.7663L121.481 108.06L107.744 103.265Z" fill="#DFCBF8" stroke="#8C6AB8" stroke-width="1.6"/>
<path d="M145.51 116.447L156.53 106.948L159.246 121.242L145.51 116.447Z" fill="#DFCBF8" stroke="#8C6AB8" stroke-width="1.6"/>
<path d="M126.627 109.856L137.647 100.357L140.363 114.651L126.627 109.856Z" fill="#DFCBF8" stroke="#8C6AB8" stroke-width="1.6"/>
<path d="M121.931 92.965L124.647 107.258L135.667 97.7596L121.931 92.965Z" fill="#DFCBF8" stroke="#8C6AB8" stroke-width="1.6"/>
<path d="M103.048 86.3742L105.764 100.668L116.785 91.1688L103.048 86.3742Z" fill="#DFCBF8" stroke="#8C6AB8" stroke-width="1.6"/>
<path d="M159.697 106.147L162.413 120.44L173.433 110.942L159.697 106.147Z" fill="#DFCBF8" stroke="#8C6AB8" stroke-width="1.6"/>
<path d="M140.814 99.5561L143.53 113.85L154.55 104.351L140.814 99.5561Z" fill="#DFCBF8" stroke="#8C6AB8" stroke-width="1.6"/>
<path d="M111.254 123.555L122.274 114.056L124.99 128.35L111.254 123.555Z" fill="#DFCBF8" stroke="#8C6AB8" stroke-width="1.6"/>
<path d="M130.136 130.146L141.157 120.647L143.873 134.941L130.136 130.146Z" fill="#DFCBF8" stroke="#8C6AB8" stroke-width="1.6"/>
<path d="M125.44 113.255L128.156 127.549L139.177 118.05L125.44 113.255Z" fill="#DFCBF8" stroke="#8C6AB8" stroke-width="1.6"/>
<path d="M106.558 106.664L109.274 120.958L120.294 111.459L106.558 106.664Z" fill="#DFCBF8" stroke="#8C6AB8" stroke-width="1.6"/>
<path d="M114.763 143.845L125.784 134.346L128.5 148.64L114.763 143.845Z" fill="#DFCBF8" stroke="#8C6AB8" stroke-width="1.6"/>
<path d="M128.95 133.545L131.666 147.839L142.687 138.34L128.95 133.545Z" fill="#DFCBF8" stroke="#8C6AB8" stroke-width="1.6"/>
<path d="M110.067 126.954L112.783 141.247L123.804 131.749L110.067 126.954Z" fill="#DFCBF8" stroke="#8C6AB8" stroke-width="1.6"/>
<path d="M113.577 147.244L116.293 161.538L127.313 152.039L113.577 147.244Z" fill="#DFCBF8" stroke="#8C6AB8" stroke-width="1.6"/>
<path d="M144.323 119.846L147.039 134.139L158.06 124.64L144.323 119.846Z" fill="#DFCBF8" stroke="#8C6AB8" stroke-width="1.6"/>
</svg>
