<svg width="380" height="380" viewBox="0 0 380 380" fill="none" xmlns="http://www.w3.org/2000/svg">
<path d="M379.283 189.641C379.283 294.378 294.378 379.283 189.641 379.283C84.9054 379.283 0 294.378 0 189.641C0 84.9054 84.9054 0 189.641 0C294.378 0 379.283 84.9054 379.283 189.641ZM1.44023 189.641C1.44023 293.582 85.7008 377.843 189.641 377.843C293.582 377.843 377.843 293.582 377.843 189.641C377.843 85.7008 293.582 1.44023 189.641 1.44023C85.7008 1.44023 1.44023 85.7008 1.44023 189.641Z" fill="#8C6AB8" fill-opacity="0.6"/>
<path d="M179.738 218.654C179.373 218.654 179.054 218.902 178.963 219.256L176.454 229.099C176.393 229.339 176.446 229.593 176.597 229.788C176.749 229.983 176.982 230.097 177.229 230.097H202.265C202.514 230.097 202.749 229.981 202.9 229.783C203.052 229.586 203.102 229.329 203.037 229.088L200.381 219.245C200.286 218.896 199.97 218.654 199.608 218.654H179.738Z" fill="white" stroke="#8C6AB8" stroke-width="1.6" stroke-linejoin="round"/>
<path d="M161.297 233.204C161.003 233.204 160.732 233.366 160.593 233.625L158.978 236.621C158.844 236.869 158.851 237.168 158.995 237.41C159.14 237.652 159.401 237.8 159.682 237.8H220.025C220.311 237.8 220.574 237.648 220.717 237.402C220.861 237.155 220.862 236.851 220.72 236.603L219.008 233.607C218.866 233.358 218.601 233.204 218.314 233.204H161.297Z" fill="white" stroke="#8C6AB8" stroke-width="1.6" stroke-linejoin="round"/>
<rect x="136.2" y="135.2" width="107.308" height="80.3458" rx="7.8" stroke="#8C6AB8" stroke-width="1.6" stroke-linecap="round" stroke-linejoin="round"/>
<path d="M141.014 183.333C140.738 183.333 140.514 183.109 140.514 182.833V140.014C140.514 139.738 140.738 139.514 141.014 139.514H165.434H177.644H189.854H202.064H214.274H238.693C238.97 139.514 239.193 139.738 239.193 140.014V182.833C239.193 183.109 238.97 183.333 238.693 183.333H141.014Z" stroke="#8C6AB8" stroke-linecap="round" stroke-linejoin="round"/>
<rect x="175.517" y="187.356" width="29.1017" height="23.9661" fill="#8C6AB8"/>
<rect x="141.352" y="187.856" width="28.1017" height="22.9661" fill="white" stroke="#8C6AB8"/>
<rect x="210.182" y="187.356" width="29.1017" height="23.9661" fill="#DFCBF8"/>
<path d="M154.403 194.178C154.582 193.791 155.132 193.791 155.311 194.178L156.103 195.895C156.322 196.369 156.771 196.695 157.289 196.757L159.167 196.979C159.591 197.03 159.761 197.553 159.447 197.843L158.059 199.127C157.676 199.481 157.504 200.009 157.606 200.521L157.975 202.376C158.058 202.794 157.612 203.118 157.24 202.909L155.59 201.986C155.135 201.731 154.58 201.731 154.124 201.986L152.474 202.909C152.102 203.118 151.656 202.794 151.74 202.376L152.108 200.521C152.21 200.009 152.038 199.481 151.655 199.127L150.267 197.843C149.954 197.553 150.124 197.03 150.547 196.979L152.425 196.757C152.944 196.695 153.392 196.369 153.611 195.895L154.403 194.178Z" stroke="#8C6AB8"/>
</svg>
