<svg width="380" height="380" viewBox="0 0 380 380" fill="none" xmlns="http://www.w3.org/2000/svg">
<path d="M379.283 189.641C379.283 294.378 294.378 379.283 189.641 379.283C84.9054 379.283 0 294.378 0 189.641C0 84.9054 84.9054 0 189.641 0C294.378 0 379.283 84.9054 379.283 189.641ZM1.51248 189.641C1.51248 293.542 85.7407 377.77 189.641 377.77C293.542 377.77 377.77 293.542 377.77 189.641C377.77 85.7407 293.542 1.51248 189.641 1.51248C85.7407 1.51248 1.51248 85.7407 1.51248 189.641Z" fill="#8C6AB8" fill-opacity="0.6"/>
<path d="M174.439 194.556H164.804" stroke="#8C6AB8" stroke-width="4"/>
<path d="M172.833 197.312H166.409" stroke="#8C6AB8" stroke-width="4"/>
<path d="M169.442 149.135L169.442 159.143" stroke="#8C6AB8" stroke-width="4"/>
<path d="M183.373 154.473L177.811 162.322" stroke="#8C6AB8" stroke-width="4"/>
<path d="M193.707 169.817L184.71 171.486" stroke="#8C6AB8" stroke-width="4"/>
<path d="M145.531 169.722L154.372 171.746" stroke="#8C6AB8" stroke-width="4"/>
<path d="M154.496 154.473L160.058 162.322" stroke="#8C6AB8" stroke-width="4"/>
<path d="M158.879 172.564C158.879 167.04 163.827 162.482 170.035 162.482C176.243 162.482 181.192 167.04 181.192 172.564C181.192 175.435 179.862 178.035 177.71 179.88C177.311 180.222 177.12 180.805 176.99 181.36C176.894 181.769 176.813 182.252 176.729 182.754C176.695 182.961 176.66 183.171 176.623 183.381C176.361 184.868 175.984 186.466 175.022 187.694C174.11 188.856 172.284 189.481 170.339 189.502C168.393 189.523 166.545 188.937 165.622 187.931C164.406 186.607 164.139 185.185 163.928 183.779C163.916 183.696 163.903 183.612 163.891 183.528C163.702 182.237 163.5 180.856 162.36 179.88C160.208 178.035 158.879 175.435 158.879 172.564Z" stroke="#8C6AB8"/>
<path d="M162.545 167.763L162.557 167.751L162.568 167.739C163.636 166.518 164.63 165.709 165.532 165.337C166.403 164.979 167.182 165.027 167.922 165.523C168.103 165.645 168.156 165.729 168.17 165.761L168.17 165.761C168.176 165.775 168.184 165.794 168.162 165.852C168.133 165.927 168.064 166.038 167.923 166.19C167.786 166.339 167.605 166.503 167.383 166.689C167.215 166.828 167.026 166.978 166.823 167.139C165.985 167.803 164.914 168.652 164.205 169.708C163.532 170.712 163.24 171.581 163.036 172.188C162.977 172.362 162.926 172.515 162.875 172.643C162.758 172.936 162.66 173.069 162.537 173.151C162.422 173.228 162.223 173.3 161.829 173.316C161.258 172.843 161.028 171.929 161.171 170.81C161.32 169.639 161.861 168.447 162.545 167.763Z" fill="#DFCBF8" fill-opacity="0.9" stroke="#8C6AB8"/>
<mask id="path-11-inside-1" fill="white">
<path d="M210.637 175.828C210.637 198.48 192.273 216.844 169.621 216.844C146.969 216.844 128.605 198.48 128.605 175.828C128.605 153.176 146.969 134.812 169.621 134.812C192.273 134.812 210.637 153.176 210.637 175.828ZM134.488 175.828C134.488 195.232 150.218 210.961 169.621 210.961C189.025 210.961 204.754 195.232 204.754 175.828C204.754 156.425 189.025 140.695 169.621 140.695C150.218 140.695 134.488 156.425 134.488 175.828Z"/>
</mask>
<path d="M210.637 175.828C210.637 198.48 192.273 216.844 169.621 216.844C146.969 216.844 128.605 198.48 128.605 175.828C128.605 153.176 146.969 134.812 169.621 134.812C192.273 134.812 210.637 153.176 210.637 175.828ZM134.488 175.828C134.488 195.232 150.218 210.961 169.621 210.961C189.025 210.961 204.754 195.232 204.754 175.828C204.754 156.425 189.025 140.695 169.621 140.695C150.218 140.695 134.488 156.425 134.488 175.828Z" stroke="#8C6AB8" stroke-width="3.2" mask="url(#path-11-inside-1)"/>
<path d="M169.14 179.457C169.728 179.457 170.128 179.702 170.34 180.192C170.389 180.339 170.414 180.535 170.414 180.78C170.414 181.025 170.308 181.245 170.095 181.441C169.72 181.784 169.295 181.857 168.822 181.661C168.365 181.465 168.136 181.147 168.136 180.706C168.136 180.249 168.242 179.931 168.454 179.751C168.667 179.555 168.895 179.457 169.14 179.457ZM169.777 176.886C169.777 177.408 169.859 177.89 170.022 178.331H169.385C168.944 178.07 168.61 177.71 168.381 177.253C168.316 177.106 168.283 176.919 168.283 176.69C168.283 176.461 168.348 176.233 168.479 176.004C168.74 175.596 169.124 175.155 169.63 174.682C170.528 173.849 170.977 173.057 170.977 172.306C170.977 171.784 170.838 171.359 170.561 171.033C170.299 170.706 169.932 170.543 169.459 170.543C168.316 170.543 167.646 170.992 167.45 171.89H166.299C166.299 171.025 166.675 170.38 167.426 169.955C168.014 169.612 168.626 169.441 169.263 169.441C170.389 169.441 171.263 169.702 171.883 170.225C172.503 170.747 172.814 171.474 172.814 172.404C172.814 173.319 172.299 174.217 171.271 175.098C170.634 175.67 170.226 176.07 170.046 176.298C169.867 176.51 169.777 176.706 169.777 176.886Z" fill="white"/>
<path d="M199.008 207.97L206.156 199.451L209.05 201.88L201.902 210.399L199.008 207.97Z" stroke="#8C6AB8"/>
<path d="M208.06 207.214L208.068 207.205L208.075 207.196L212.097 202.241C212.519 201.721 213.286 201.647 213.8 202.078L247.164 230.074C247.672 230.5 247.738 231.257 247.312 231.764L238.138 242.697C237.712 243.205 236.955 243.271 236.448 242.845L203.08 214.846C202.567 214.416 202.506 213.649 202.943 213.143L208.06 207.214Z" fill="#DFCBF8" stroke="#8C6AB8" stroke-width="1.6"/>
</svg>
