<svg width="380" height="380" viewBox="0 0 380 380" fill="none" xmlns="http://www.w3.org/2000/svg">
<path d="M379.283 189.641C379.283 294.378 294.378 379.283 189.641 379.283C84.9054 379.283 0 294.378 0 189.641C0 84.9054 84.9054 0 189.641 0C294.378 0 379.283 84.9054 379.283 189.641ZM1.51248 189.641C1.51248 293.542 85.7407 377.77 189.641 377.77C293.542 377.77 377.77 293.542 377.77 189.641C377.77 85.7407 293.542 1.51248 189.641 1.51248C85.7407 1.51248 1.51248 85.7407 1.51248 189.641Z" fill="#8C6AB8" fill-opacity="0.6"/>
<g filter="url(#filter0_f)">
<path d="M201.49 211.675C201.49 211.675 199.513 212.355 197.535 212.94C195.497 213.544 193.312 213.941 193.312 213.941L191.238 210.113C191.238 210.113 193.537 209.117 195.14 208.036C196.808 206.912 198.316 205.817 198.316 205.817L201.49 211.675Z" fill="#DFCBF8"/>
<path d="M201.49 211.675C201.49 211.675 199.513 212.355 197.535 212.94C195.497 213.544 193.312 213.941 193.312 213.941L191.238 210.113C191.238 210.113 193.537 209.117 195.14 208.036C196.808 206.912 198.316 205.817 198.316 205.817L201.49 211.675Z" fill="url(#paint0_linear)"/>
</g>
<path d="M156.951 204.005L154.816 205.657L154.791 204.038L154.758 201.878L156.918 201.845L156.951 204.005Z" fill="#8C6AB8"/>
<path d="M257.182 207.441L265.077 208.063L265.077 208.06L264.169 219.626L256.274 219.006L257.182 207.441Z" fill="#8C6AB8"/>
<path d="M145.985 193.318L161.872 192.565L161.868 192.566L163.068 217.884L147.185 218.636L145.985 193.318Z" fill="#8C6AB8"/>
<path d="M121.571 208.828L126.972 204.435L133.114 207.98L134.028 220.438L122.486 221.285L121.571 208.828Z" fill="#8C6AB8"/>
<path d="M135.325 203.282L141.407 197.397L146.349 201L147.185 218.636L136.281 219.453L135.325 203.282Z" fill="#8C6AB8"/>
<path d="M154.124 205.776L163.642 198.785L173.916 204.607L174.673 217.419L154.881 218.589L154.124 205.776Z" fill="#8C6AB8"/>
<path d="M189.316 196.445L187.157 198.065L187.157 194.286H189.316V196.445Z" fill="#8C6AB8"/>
<path d="M222.87 201.429L220.635 202.489L220.82 199.685L222.975 199.827L222.87 201.429Z" fill="#8C6AB8"/>
<path d="M231.838 196.658L250.773 197.483L250.768 197.483L249.83 218.999L230.9 218.174L231.838 196.658Z" fill="#8C6AB8"/>
<path d="M236.835 196.876L234.675 196.781L234.736 195.365L236.894 195.461L236.835 196.876Z" fill="#8C6AB8"/>
<path d="M171.212 181.758L185.656 181.074L185.652 181.074L187.357 217.065L172.917 217.749L171.212 181.758Z" fill="#8C6AB8"/>
<path d="M206.817 175.927L220.849 176.371L220.846 176.371L219.545 217.389L205.516 216.944L206.817 175.927Z" fill="#8C6AB8"/>
<path d="M184.997 199.678L194.675 191.046L205.503 198.534L205.503 216.965L185.077 216.852L184.997 199.678Z" fill="#8C6AB8"/>
<path d="M205.502 202.871L211.996 207.735L211.982 216.965H205.503L205.502 202.871Z" fill="#8C6AB8"/>
<path d="M217.974 203.936L228.166 197.972L237.78 204.829L237.202 217.651L217.396 216.758L217.974 203.936Z" fill="#8C6AB8"/>
<path d="M276.793 221.284C276.793 221.284 251.471 216.872 199.036 216.965C147.864 217.057 104 223.444 104 223.444" stroke="#8C6AB8"/>
<path d="M203.209 218.99C249.171 218.894 269.66 225.673 269.66 225.673C269.66 225.673 245.732 221.021 219.172 223.816C198.317 226.012 185.251 228.154 169.383 230.755L168.684 230.87C146.039 234.582 118.567 237.923 120.424 230.87C122.28 223.816 158.353 219.085 203.209 218.99Z" stroke="#8C6AB8" stroke-width="1.6"/>
<path d="M118.039 216.057L119.413 215.885L120.048 220.94L118.675 221.112L118.039 216.057Z" fill="#8C6AB8"/>
<circle cx="118.579" cy="214.265" r="2.6999" fill="#8C6AB8"/>
<path d="M115.635 217.709L116.853 217.556L117.417 222.039L116.199 222.192L115.635 217.709Z" fill="#8C6AB8"/>
<circle cx="116.114" cy="216.119" r="2.3945" fill="#8C6AB8"/>
<path d="M110.968 215.994L112.652 215.782L113.431 221.981L111.747 222.192L110.968 215.994Z" fill="#8C6AB8"/>
<circle cx="111.631" cy="213.796" r="3.31069" fill="#8C6AB8"/>
<path d="M268.993 215.282L270.375 215.349L270.13 220.438L268.748 220.371L268.993 215.282Z" fill="#8C6AB8"/>
<circle cx="269.833" cy="213.61" r="2.6999" transform="rotate(9.92148 269.833 213.61)" fill="#8C6AB8"/>
<path d="M265.444 215.045L266.671 215.073L266.568 219.59L265.341 219.562L265.444 215.045Z" fill="#8C6AB8"/>
<circle cx="266.151" cy="213.543" r="2.3945" transform="rotate(8.4667 266.151 213.543)" fill="#8C6AB8"/>
<path d="M273.29 216.942L274.218 217.069L273.747 220.486L272.819 220.358L273.29 216.942Z" fill="#8C6AB8"/>
<circle cx="273.956" cy="215.864" r="1.8274" transform="rotate(15 273.956 215.864)" fill="#8C6AB8"/>
<path d="M253.816 212.212L255.513 212.255L255.352 218.501L253.655 218.457L253.816 212.212Z" fill="#8C6AB8"/>
<circle cx="254.801" cy="210.138" r="3.31069" transform="rotate(8.64157 254.801 210.138)" fill="#8C6AB8"/>
<path d="M206.15 211.844L207.485 211.879L207.359 216.794L206.023 216.759L206.15 211.844Z" fill="#8C6AB8"/>
<circle cx="206.925" cy="210.212" r="2.60548" transform="rotate(8.64157 206.925 210.212)" fill="#8C6AB8"/>
<path d="M210.209 214.754L210.885 214.78L210.86 217.021L210.183 216.995L210.209 214.754Z" fill="#8C6AB8"/>
<ellipse cx="210.589" cy="214.015" rx="1.32296" ry="1.18534" transform="rotate(8.64157 210.589 214.015)" fill="#8C6AB8"/>
<path d="M205.668 159.519C205.192 161.054 203.61 162.932 201.873 164.357C201.009 165.066 200.118 165.653 199.324 166.024C198.518 166.4 197.858 166.53 197.43 166.397C197.003 166.265 196.533 165.783 196.082 165.016C195.638 164.261 195.236 163.272 194.926 162.198C194.303 160.04 194.064 157.596 194.541 156.062C195.497 152.985 198.763 151.266 201.836 152.221C204.908 153.175 206.624 156.443 205.668 159.519Z" stroke="#8C6AB8" stroke-width="0.4"/>
<path d="M197.678 154.193C196.368 155.249 196.038 157.003 195.534 156.377C195.03 155.752 195.683 154.389 196.994 153.333C198.304 152.277 199.774 151.928 200.279 152.553C200.783 153.179 198.988 153.137 197.678 154.193Z" fill="#8C6AB8"/>
<path d="M197.507 166.579C197.507 166.579 196.643 167.251 196.49 168.322C196.312 169.567 196.544 170.311 196.472 171.567C196.411 172.624 195.586 173.803 195.586 173.803" stroke="#8C6AB8" stroke-width="0.5"/>
<path d="M196.802 166.42C197.173 166.178 197.667 166.427 197.692 166.869L197.735 167.631C197.741 167.735 197.632 167.806 197.539 167.759C197.528 167.754 197.519 167.747 197.51 167.739L197.217 167.475C197.044 167.319 196.823 167.229 196.591 167.218L196.287 167.205C196.236 167.202 196.188 167.181 196.152 167.146C196.057 167.054 196.073 166.898 196.183 166.826L196.802 166.42Z" fill="#8C6AB8"/>
<path d="M187.063 156.455C187.678 157.94 187.664 160.395 187.241 162.601C187.03 163.699 186.721 164.721 186.347 165.513C185.968 166.318 185.544 166.841 185.131 167.012C184.717 167.183 184.048 167.114 183.211 166.813C182.387 166.517 181.445 166.014 180.52 165.386C178.66 164.126 176.914 162.401 176.298 160.916C175.065 157.94 176.475 154.529 179.448 153.298C182.42 152.066 185.83 153.479 187.063 156.455Z" stroke="#8C6AB8" stroke-width="0.4"/>
<path d="M177.514 157.474C177.182 159.123 178.051 160.682 177.263 160.524C176.476 160.366 176.106 158.9 176.437 157.25C176.769 155.6 177.676 154.391 178.463 154.549C179.251 154.708 177.845 155.824 177.514 157.474Z" fill="#8C6AB8"/>
<path d="M185.306 167.103C185.306 167.103 185.071 168.172 185.639 169.093C186.299 170.164 186.953 170.587 187.701 171.598C188.331 172.45 188.451 173.884 188.451 173.884" stroke="#8C6AB8" stroke-width="0.5"/>
<path d="M184.662 167.432C184.792 167.008 185.331 166.883 185.634 167.207L186.154 167.766C186.225 167.842 186.187 167.966 186.085 167.989C186.074 167.992 186.062 167.993 186.05 167.993L185.656 167.977C185.423 167.968 185.195 168.04 185.01 168.18L184.768 168.364C184.727 168.395 184.677 168.41 184.626 168.405C184.495 168.395 184.407 168.265 184.446 168.139L184.662 167.432Z" fill="#8C6AB8"/>
<path d="M197.2 152.555C197.384 154.604 196.43 157.587 195.078 160.104C194.405 161.359 193.64 162.484 192.883 163.307C192.117 164.141 191.393 164.628 190.805 164.68C190.217 164.733 189.418 164.384 188.515 163.7C187.623 163.025 186.67 162.054 185.783 160.941C184.004 158.705 182.533 155.94 182.349 153.891C181.98 149.785 185.005 146.158 189.106 145.789C193.206 145.42 196.83 148.449 197.2 152.555Z" fill="#8C6AB8" stroke="#8C6AB8" stroke-width="0.4"/>
<path d="M190.979 164.803C190.979 164.803 190.253 166.506 190.592 167.838C190.986 169.387 192.471 169.63 192.994 171.14C193.435 172.411 192.22 174.217 192.22 174.217" stroke="#8C6AB8" stroke-width="0.5"/>
<path d="M190.141 164.774C190.459 164.31 191.161 164.363 191.404 164.871L191.823 165.745C191.88 165.864 191.787 166 191.655 165.99C191.64 165.989 191.625 165.986 191.611 165.981L191.139 165.812C190.861 165.713 190.557 165.714 190.279 165.814L189.916 165.945C189.855 165.967 189.788 165.966 189.729 165.941C189.573 165.879 189.516 165.688 189.61 165.55L190.141 164.774Z" fill="#8C6AB8"/>
<path d="M185.003 150.518C184.512 151.413 184.35 152.382 184.231 153.09C184.221 153.152 184.211 153.212 184.201 153.269C184.17 153.451 184.141 153.608 184.108 153.739C184.075 153.872 184.041 153.965 184.006 154.024C183.973 154.08 183.953 154.085 183.95 154.086L183.95 154.086C183.943 154.087 183.905 154.092 183.814 154.042C183.473 153.855 183.274 153.362 183.317 152.607C183.358 151.868 183.631 150.948 184.133 150.031C184.636 149.114 185.264 148.39 185.865 147.958C186.479 147.516 187.002 147.418 187.343 147.605C187.434 147.654 187.45 147.689 187.452 147.696L187.452 147.696C187.453 147.699 187.46 147.719 187.43 147.779C187.398 147.841 187.337 147.92 187.242 148.021C187.149 148.12 187.032 148.23 186.895 148.355C186.85 148.395 186.805 148.437 186.757 148.48C186.222 148.965 185.492 149.625 185.003 150.518Z" fill="white" stroke="white" stroke-width="0.4"/>
<defs>
<filter id="filter0_f" x="190.738" y="205.317" width="11.2519" height="9.12318" filterUnits="userSpaceOnUse" color-interpolation-filters="sRGB">
<feFlood flood-opacity="0" result="BackgroundImageFix"/>
<feBlend mode="normal" in="SourceGraphic" in2="BackgroundImageFix" result="shape"/>
<feGaussianBlur stdDeviation="0.25" result="effect1_foregroundBlur"/>
</filter>
<linearGradient id="paint0_linear" x1="207.652" y1="207.655" x2="192.384" y2="214.857" gradientUnits="userSpaceOnUse">
<stop stop-color="white"/>
<stop offset="1" stop-color="white" stop-opacity="0"/>
</linearGradient>
</defs>
</svg>
