<svg width="256" height="256" viewBox="0 0 256 256" fill="none" xmlns="http://www.w3.org/2000/svg">
<path d="M256 128C256 198.692 198.692 256 128 256C57.3076 256 0 198.692 0 128C0 57.3076 57.3076 0 128 0C198.692 0 256 57.3076 256 128ZM1.02087 128C1.02087 198.129 57.8714 254.979 128 254.979C198.129 254.979 254.979 198.129 254.979 128C254.979 57.8714 198.129 1.02087 128 1.02087C57.8714 1.02087 1.02087 57.8714 1.02087 128Z" fill="#8C6AB8" fill-opacity="0.6"/>
<rect x="82.2" y="98.2" width="63.2896" height="48.4445" fill="white" stroke="#8C6AB8" stroke-width="1.6" stroke-linecap="round" stroke-linejoin="round"/>
<path d="M84.9795 126.711L143.04 126.711V100.649H128.525H121.268H114.01H106.752H99.4947H84.9795V126.711Z" fill="#DFCBF8" stroke="#8C6AB8" stroke-linecap="round" stroke-linejoin="round"/>
<rect x="105.432" y="130.01" width="17.1543" height="14.5152" fill="#DFCBF8"/>
<path d="M85.4795 130.51H101.634V144.025H85.4795V130.51Z" stroke="#8C6AB8"/>
<rect x="125.886" y="130.01" width="17.1543" height="14.5152" fill="#8C6AB8"/>
<path d="M92.7304 134.919C92.9998 134.294 93.8866 134.294 94.156 134.919C94.4131 135.516 94.9759 135.925 95.6233 135.985C96.3014 136.048 96.5754 136.892 96.0638 137.341C95.5754 137.77 95.3604 138.432 95.5034 139.066C95.6531 139.73 94.9356 140.252 94.35 139.904C93.791 139.572 93.0954 139.572 92.5364 139.904C91.9508 140.252 91.2333 139.73 91.383 139.066C91.526 138.432 91.311 137.77 90.8226 137.341C90.311 136.892 90.585 136.048 91.2632 135.985C91.9105 135.925 92.4733 135.516 92.7304 134.919Z" fill="#DFCBF8" stroke="#8C6AB8"/>
<path d="M151.545 115.493L172 120.974L162.213 157.501L141.758 152.02L151.545 115.493Z" fill="white" stroke="#8C6AB8" stroke-width="1.6" stroke-linecap="round" stroke-linejoin="round"/>
<path d="M149.341 134.584C149.074 134.512 148.916 134.238 148.987 133.971L153.144 118.456C153.216 118.19 153.49 118.031 153.757 118.103L157.543 119.117L159.436 119.624L161.329 120.132L163.222 120.639L165.115 121.146L168.901 122.161C169.168 122.232 169.326 122.506 169.255 122.773L165.098 138.288C165.026 138.555 164.752 138.713 164.485 138.642L149.341 134.584Z" stroke="#8C6AB8" stroke-linecap="round" stroke-linejoin="round"/>
<path d="M145.291 148.948C145.025 148.876 144.866 148.602 144.938 148.335L148.069 136.65C148.14 136.384 148.415 136.225 148.681 136.297L152.467 137.311L154.36 137.818L156.254 138.326L158.147 138.833L160.04 139.34L163.826 140.355C164.093 140.426 164.251 140.7 164.179 140.967L161.048 152.652C160.977 152.919 160.703 153.077 160.436 153.006L145.291 148.948Z" stroke="#DFCBF8" stroke-linecap="round" stroke-linejoin="round"/>
<rect x="158.378" y="118.586" width="5.79834" height="0.491107" transform="rotate(15 158.378 118.586)" stroke="#DFCBF8" stroke-width="0.5" stroke-linecap="round" stroke-linejoin="round"/>
<ellipse cx="152.446" cy="153.043" rx="0.730225" ry="0.711258" transform="rotate(15 152.446 153.043)" fill="#DFCBF8"/>
</svg>
