<svg width="380" height="380" viewBox="0 0 380 380" fill="none" xmlns="http://www.w3.org/2000/svg">
<path d="M379.283 189.641C379.283 294.378 294.378 379.283 189.641 379.283C84.9054 379.283 0 294.378 0 189.641C0 84.9054 84.9054 0 189.641 0C294.378 0 379.283 84.9054 379.283 189.641ZM1.51248 189.641C1.51248 293.542 85.7407 377.77 189.641 377.77C293.542 377.77 377.77 293.542 377.77 189.641C377.77 85.7407 293.542 1.51248 189.641 1.51248C85.7407 1.51248 1.51248 85.7407 1.51248 189.641Z" fill="#8C6AB8" fill-opacity="0.6"/>
<path d="M191.22 207.506L190.508 206.558L189.786 207.498L171.152 231.74L157.397 221.233L175.107 196.875L175.832 195.878L174.661 195.491L146.146 186.088L151.814 169.506L180.271 178.275L181.437 178.634L181.437 177.415L181.437 147.9L199.564 147.9L199.564 177.415L199.564 178.629L200.725 178.276L229.612 169.508L234.873 186.082L206.34 195.491L205.154 195.882L205.9 196.884L224.027 221.219L209.425 231.753L191.22 207.506Z" stroke="#8C6AB8" stroke-width="1.8"/>
</svg>
