<svg width="256" height="256" viewBox="0 0 256 256" fill="none" xmlns="http://www.w3.org/2000/svg">
<path d="M256 128C256 198.692 198.692 256 128 256C57.3076 256 0 198.692 0 128C0 57.3076 57.3076 0 128 0C198.692 0 256 57.3076 256 128ZM1.02087 128C1.02087 198.129 57.8714 254.979 128 254.979C198.129 254.979 254.979 198.129 254.979 128C254.979 57.8714 198.129 1.02087 128 1.02087C57.8714 1.02087 1.02087 57.8714 1.02087 128Z" fill="#8C6AB8" fill-opacity="0.6"/>
<path d="M132.597 113.19L186 127.5L132.597 156.278L69 127.5L132.597 113.19Z" stroke="#8C6AB8" stroke-width="1.6" stroke-linecap="round" stroke-linejoin="round"/>
<path d="M118.174 97.4165C118.025 97.394 117.873 97.4402 117.762 97.5423C117.65 97.6444 117.591 97.7913 117.601 97.9421L118.376 110.336L119.151 122.73C119.165 122.942 119.31 123.122 119.514 123.18L135.166 127.633L150.817 132.087C151.08 132.161 151.354 132.011 151.433 131.75L155.569 117.997L159.705 104.244C159.746 104.105 159.726 103.955 159.648 103.833C159.571 103.71 159.444 103.627 159.3 103.606L138.737 100.511L118.174 97.4165Z" fill="white" stroke="#8C6AB8" stroke-linejoin="round"/>
<path d="M122.265 121.484L122.024 117.643L134.987 109.823L137.502 113.17L147.872 106.913L153.034 115.703L148.843 128.583L122.265 121.484Z" fill="#8C6AB8"/>
<ellipse rx="4.21562" ry="4.30578" transform="matrix(0.989927 0.141578 -0.0699919 0.997548 124.953 104.985)" fill="#DFCBF8"/>
<path d="M108.191 100.218C108.042 100.195 107.89 100.242 107.779 100.344C107.667 100.446 107.608 100.593 107.618 100.743L108.393 113.137L109.169 125.531C109.182 125.743 109.327 125.923 109.531 125.981L125.183 130.435L140.834 134.888C141.097 134.963 141.371 134.813 141.45 134.551L145.586 120.798L149.722 107.045C149.763 106.907 149.743 106.756 149.665 106.634C149.588 106.511 149.461 106.429 149.317 106.407L128.754 103.312L108.191 100.218Z" fill="white" stroke="#8C6AB8" stroke-linejoin="round"/>
<path d="M112.282 124.285L112.042 120.445L125.004 112.624L127.519 115.971L137.889 109.715L143.051 118.505L138.86 131.385L112.282 124.285Z" fill="#DFCBF8"/>
<ellipse rx="4.21562" ry="4.30578" transform="matrix(0.989927 0.141578 -0.0699919 0.997548 114.97 107.786)" fill="#DFCBF8"/>
<path d="M97.4853 103.064C97.3359 103.042 97.1844 103.088 97.073 103.19C96.9617 103.292 96.9024 103.439 96.9119 103.59L97.6873 115.984L98.4628 128.378C98.476 128.59 98.6211 128.77 98.825 128.828L114.477 133.281L130.129 137.735C130.391 137.809 130.666 137.659 130.744 137.398L134.88 123.645L139.016 109.892C139.058 109.753 139.037 109.603 138.959 109.481C138.882 109.358 138.755 109.275 138.611 109.254L118.048 106.159L97.4853 103.064Z" fill="white" stroke="#8C6AB8" stroke-linejoin="round"/>
<path d="M101.576 127.132L101.336 123.291L114.298 115.471L116.813 118.818L127.183 112.561L132.345 121.351L128.155 134.231L101.576 127.132Z" stroke="#8C6AB8"/>
<path d="M107.943 111.159C107.795 113.266 106.02 114.718 103.998 114.429C101.977 114.14 100.439 112.213 100.586 110.107C100.734 108 102.509 106.547 104.531 106.836C106.553 107.125 108.091 109.052 107.943 111.159Z" stroke="#8C6AB8"/>
</svg>
