<svg width="380" height="380" viewBox="0 0 380 380" fill="none" xmlns="http://www.w3.org/2000/svg">
<path d="M379.283 189.641C379.283 294.378 294.378 379.283 189.641 379.283C84.9054 379.283 0 294.378 0 189.641C0 84.9054 84.9054 0 189.641 0C294.378 0 379.283 84.9054 379.283 189.641ZM1.44023 189.641C1.44023 293.582 85.7008 377.843 189.641 377.843C293.582 377.843 377.843 293.582 377.843 189.641C377.843 85.7008 293.582 1.44023 189.641 1.44023C85.7008 1.44023 1.44023 85.7008 1.44023 189.641Z" fill="#8C6AB8" fill-opacity="0.6"/>
<path d="M210.317 218.229C210.317 218.229 206.358 220.557 205.12 224.972C203.681 230.103 204.221 233.363 203.215 238.6C202.368 243.009 198.286 247.494 198.286 247.494" stroke="#8C6AB8"/>
<path d="M212.913 215.945L212.879 215.938C212.846 215.931 212.797 215.921 212.734 215.907C212.61 215.879 212.436 215.839 212.242 215.787C211.837 215.679 211.401 215.539 211.116 215.389C210.843 215.246 210.492 214.981 210.182 214.723C210.033 214.599 209.905 214.485 209.814 214.403C209.769 214.362 209.733 214.329 209.709 214.307L209.692 214.291C208.119 212.579 206.737 209.631 205.664 205.882C204.594 202.142 203.856 197.694 203.52 193.088C202.847 183.837 203.81 174.133 206.803 168.3C213.286 155.665 228.617 150.761 241.038 157.324C253.458 163.886 258.29 179.443 251.807 192.079C248.808 197.922 241.494 204.277 233.611 209.001C229.686 211.353 225.659 213.277 222.019 214.518C218.365 215.763 215.188 216.288 212.913 215.945ZM211.847 217.341C211.865 217.346 211.882 217.35 211.898 217.355L211.513 220.3L210.774 219.33C210.043 218.371 209.005 217.699 207.839 217.43L206.551 217.133C206.529 217.128 206.51 217.115 206.496 217.096C206.46 217.044 206.479 216.961 206.545 216.932L206.554 216.929L206.563 216.924L208.993 215.806C209.049 215.854 209.109 215.906 209.173 215.959C209.498 216.23 209.958 216.588 210.391 216.814C210.842 217.051 211.422 217.228 211.847 217.341Z" stroke="#8C6AB8" stroke-width="1.6"/>
<path d="M216.969 165.575C211.828 170.448 210.987 177.968 208.695 175.478C206.403 172.988 208.713 167.019 213.854 162.146C218.995 157.274 225.021 155.343 227.313 157.833C229.605 160.324 222.11 160.703 216.969 165.575Z" fill="#DFCBF8" fill-opacity="0.5"/>
<path d="M169.852 172.413C171.863 178.935 170.881 189.317 168.292 198.479C167.003 203.041 165.33 207.242 163.477 210.452C162.551 212.057 161.59 213.395 160.624 214.403C159.653 215.416 158.713 216.059 157.833 216.338C156.954 216.617 155.821 216.633 154.454 216.362C153.094 216.092 151.553 215.548 149.89 214.765C146.565 213.198 142.832 210.712 139.21 207.709C131.938 201.677 125.301 193.714 123.291 187.192C119.26 174.115 126.431 160.221 139.279 156.143C152.127 152.065 165.822 159.337 169.852 172.413Z" stroke="#8C6AB8" stroke-width="1.6"/>
<path d="M131.016 173.747C129.017 180.591 132.05 187.506 128.83 186.538C125.61 185.57 124.62 179.237 126.618 172.393C128.616 165.548 132.846 160.785 136.065 161.752C139.285 162.72 133.014 166.902 131.016 173.747Z" fill="white"/>
<path d="M158.517 216.741C158.517 216.741 157.139 221.17 159.158 225.277C161.504 230.052 164.069 232.09 166.804 236.647C169.108 240.483 169.072 246.588 169.072 246.588" stroke="#8C6AB8"/>
<path d="M159.69 217.293L162.029 220.347L159.701 220.04C158.584 219.892 157.449 220.144 156.495 220.75L154.751 221.86C154.688 221.9 154.612 221.915 154.538 221.902C154.351 221.869 154.241 221.672 154.312 221.495L155.778 217.84C156.435 216.202 158.621 215.896 159.69 217.293Z" fill="#DFCBF8" stroke="#8C6AB8" stroke-width="1.6"/>
<path d="M183.724 206.168C183.724 206.168 180.277 212.687 181.136 218.109C182.135 224.412 187.873 225.913 189.393 232.108C190.673 237.323 185.271 244.078 185.271 244.078" stroke="#8C6AB8"/>
<path d="M185.03 205.121L184.988 205.133C184.95 205.144 184.894 205.16 184.823 205.18C184.68 205.219 184.48 205.272 184.252 205.325C183.78 205.434 183.251 205.528 182.868 205.529C182.5 205.53 181.993 205.447 181.539 205.35C181.321 205.303 181.128 205.256 180.991 205.221C180.923 205.203 180.868 205.189 180.832 205.179L180.802 205.17C178.27 204.262 175.295 201.979 172.227 198.721C169.166 195.47 166.075 191.317 163.314 186.786C157.771 177.691 153.653 167.232 153.653 159.621C153.653 143.139 166.803 129.8 182.997 129.8C199.191 129.8 212.34 143.139 212.34 159.621C212.34 167.246 208.184 177.712 202.602 186.801C199.822 191.329 196.711 195.476 193.635 198.716C190.548 201.967 187.561 204.235 185.03 205.121ZM184.612 206.884C184.667 206.871 184.72 206.858 184.772 206.846L186.058 210.443L184.535 209.73C183.309 209.156 181.924 209.032 180.618 209.38L179.147 209.772C179.094 209.786 179.038 209.78 178.989 209.754C178.857 209.685 178.811 209.497 178.915 209.369L178.921 209.362L178.927 209.354L180.871 206.839C180.972 206.863 181.084 206.889 181.204 206.914C181.677 207.016 182.325 207.131 182.873 207.129C183.445 207.127 184.12 206.997 184.612 206.884Z" fill="#DFCBF8" stroke="#8C6AB8" stroke-width="1.6"/>
<path d="M165.993 144.995C160.161 151.678 159.992 161.141 156.849 158.316C153.705 155.492 155.884 147.784 161.715 141.101C167.547 134.418 174.823 131.29 177.967 134.115C181.111 136.94 171.825 138.312 165.993 144.995Z" fill="white"/>
</svg>
