<svg width="380" height="380" viewBox="0 0 380 380" fill="none" xmlns="http://www.w3.org/2000/svg">
<path d="M379.283 189.641C379.283 294.378 294.378 379.283 189.641 379.283C84.9054 379.283 0 294.378 0 189.641C0 84.9054 84.9054 0 189.641 0C294.378 0 379.283 84.9054 379.283 189.641ZM1.51248 189.641C1.51248 293.542 85.7407 377.77 189.641 377.77C293.542 377.77 377.77 293.542 377.77 189.641C377.77 85.7407 293.542 1.51248 189.641 1.51248C85.7407 1.51248 1.51248 85.7407 1.51248 189.641Z" fill="#8C6AB8" fill-opacity="0.6"/>
<path d="M159.129 153.8H217.871C221.366 153.8 224.2 156.634 224.2 160.129V218.871C224.2 222.366 221.366 225.2 217.871 225.2H159.129C155.634 225.2 152.8 222.366 152.8 218.871V160.129C152.8 156.634 155.634 153.8 159.129 153.8Z" stroke="#8C6AB8" stroke-width="1.6"/>
<path d="M196.667 162.99H212.088C213.702 162.99 215.01 164.298 215.01 165.912V191.006C215.01 192.62 213.702 193.928 212.088 193.928H196.667C195.053 193.928 193.745 192.62 193.745 191.006V165.912C193.745 164.298 195.053 162.99 196.667 162.99Z" fill="#DFCBF8" stroke="#8C6AB8"/>
<path d="M164.912 162.99H180.333C181.947 162.99 183.255 164.298 183.255 165.912V209.256C183.255 210.87 181.947 212.178 180.333 212.178H164.912C163.298 212.178 161.99 210.87 161.99 209.256V165.912C161.99 164.298 163.298 162.99 164.912 162.99Z" fill="white" stroke="#8C6AB8"/>
</svg>
