<svg width="256" height="256" viewBox="0 0 256 256" fill="none" xmlns="http://www.w3.org/2000/svg">
<path d="M256 128C256 198.692 198.692 256 128 256C57.3076 256 0 198.692 0 128C0 57.3076 57.3076 0 128 0C198.692 0 256 57.3076 256 128ZM1.02087 128C1.02087 198.129 57.8714 254.979 128 254.979C198.129 254.979 254.979 198.129 254.979 128C254.979 57.8714 198.129 1.02087 128 1.02087C57.8714 1.02087 1.02087 57.8714 1.02087 128Z" fill="#8C6AB8" fill-opacity="0.6"/>
<path d="M147.075 90.1945L147.421 89.4735L147.075 90.1945L162.535 97.618C161.806 97.6672 161.07 97.9228 160.408 98.4237L97.9015 145.712C96.9775 146.411 95.6846 146.354 94.8267 145.576L94.8267 145.576L90.5869 141.732C89.5388 140.782 89.5375 139.14 90.5843 138.188L142.49 90.9921L142.504 90.9797L142.517 90.9667C143.717 89.7701 145.545 89.46 147.075 90.1945Z" stroke="#8C6AB8" stroke-width="1.6"/>
<path d="M142.49 163.817L142.503 163.83C143.704 165.031 145.532 165.342 147.062 164.605L142.49 163.817ZM142.49 163.817L142.476 163.805L90.5386 116.45L89.9996 117.041L90.5386 116.45C89.4899 115.494 89.4911 113.843 90.5412 112.888L90.5412 112.888L94.7836 109.031C94.7836 109.031 94.7836 109.031 94.7836 109.031C95.6421 108.251 96.9349 108.193 97.8592 108.895L97.8592 108.895L160.404 156.342C161.07 156.847 161.809 157.104 162.542 157.152L147.062 164.605L142.49 163.817Z" fill="#DFCBF8" stroke="#8C6AB8" stroke-width="1.6"/>
<path d="M147.55 92.5973C147.55 91.6521 147.215 90.8451 146.684 90.2341C146.812 90.2803 146.939 90.3334 147.064 90.3934L147.064 90.3934L162.926 98.0219L162.926 98.0219C164.316 98.6902 165.2 100.096 165.2 101.638V153.362C165.2 154.904 164.316 156.31 162.926 156.978L163.273 157.699L162.926 156.978L147.064 164.606C146.939 164.666 146.812 164.719 146.684 164.765C147.215 164.154 147.55 163.347 147.55 162.402V92.5973Z" fill="#DFCBF8" stroke="#8C6AB8" stroke-width="1.6"/>
</svg>
