<svg width="256" height="256" viewBox="0 0 256 256" fill="none" xmlns="http://www.w3.org/2000/svg">
<path d="M256 128C256 198.692 198.692 256 128 256C57.3076 256 0 198.692 0 128C0 57.3076 57.3076 0 128 0C198.692 0 256 57.3076 256 128ZM1.02087 128C1.02087 198.129 57.8714 254.979 128 254.979C198.129 254.979 254.979 198.129 254.979 128C254.979 57.8714 198.129 1.02087 128 1.02087C57.8714 1.02087 1.02087 57.8714 1.02087 128Z" fill="#8C6AB8" fill-opacity="0.6"/>
<path d="M105.623 114.998L127.78 102.418L150.36 115.002L127.89 127.582L105.623 114.998Z" stroke="#8C6AB8" stroke-width="1.6"/>
<path d="M104.8 116.361L127.2 128.832V153.6L104.8 140.391V116.361ZM128.8 153.6V128.832L151.2 116.361V140.391L128.8 153.6Z" fill="white" stroke="#8C6AB8" stroke-width="1.6"/>
</svg>
