<svg width="256" height="256" viewBox="0 0 256 256" fill="none" xmlns="http://www.w3.org/2000/svg">
<path d="M256 128C256 198.692 198.692 256 128 256C57.3076 256 0 198.692 0 128C0 57.3076 57.3076 0 128 0C198.692 0 256 57.3076 256 128ZM1.02087 128C1.02087 198.129 57.8714 254.979 128 254.979C198.129 254.979 254.979 198.129 254.979 128C254.979 57.8714 198.129 1.02087 128 1.02087C57.8714 1.02087 1.02087 57.8714 1.02087 128Z" fill="#8C6AB8" fill-opacity="0.6"/>
<path d="M133.143 155H124" stroke="#8C6AB8" stroke-width="2" stroke-linecap="square" stroke-linejoin="bevel"/>
<path d="M133.143 158H124" stroke="#8C6AB8" stroke-width="2" stroke-linecap="square" stroke-linejoin="bevel"/>
<path d="M130.857 161H126.857" stroke="#8C6AB8" stroke-width="2" stroke-linecap="square" stroke-linejoin="bevel"/>
<path d="M127.572 91L127.572 101.286" stroke="#8C6AB8" stroke-width="1.6" stroke-linecap="round"/>
<path d="M148.042 98.7231L142.429 106.429" stroke="#8C6AB8" stroke-width="1.6" stroke-linecap="round"/>
<path d="M164.143 120.714L153.857 122.786" stroke="#8C6AB8" stroke-width="1.6" stroke-linecap="round"/>
<path d="M91 120.714L101.286 122.925" stroke="#8C6AB8" stroke-width="1.6" stroke-linecap="round"/>
<path d="M106.26 98.7231L111.571 107" stroke="#8C6AB8" stroke-width="1.6" stroke-linecap="round"/>
<path d="M112.25 127.55C112.25 119.607 119.369 113.039 128.317 113.039C137.265 113.039 144.384 119.607 144.384 127.55C144.384 131.68 142.472 135.422 139.373 138.078C138.774 138.592 138.494 139.459 138.306 140.261C138.166 140.856 138.049 141.558 137.928 142.286C137.878 142.585 137.827 142.888 137.774 143.191C137.396 145.34 136.852 147.636 135.472 149.397C134.174 151.052 131.559 151.954 128.756 151.984C125.951 152.014 123.302 151.168 121.987 149.735C120.244 147.837 119.86 145.8 119.555 143.767C119.537 143.646 119.519 143.523 119.501 143.399C119.228 141.537 118.932 139.51 117.261 138.078C114.162 135.422 112.25 131.68 112.25 127.55Z" stroke="#8C6AB8" stroke-width="1.6"/>
<path d="M117.354 120.354L117.365 120.342L117.376 120.329C118.432 119.123 119.41 118.449 120.288 118.196C121.143 117.95 121.949 118.089 122.731 118.614C122.939 118.753 123.055 118.856 123.114 118.927C123.119 118.932 123.123 118.937 123.126 118.941C123.124 118.943 123.122 118.946 123.12 118.948C123.068 119.01 122.974 119.094 122.817 119.209C122.672 119.316 122.487 119.438 122.272 119.581C121.596 120.028 120.62 120.672 119.646 121.646C118.596 122.697 118.189 123.888 117.881 124.788C117.844 124.896 117.809 124.999 117.774 125.098C117.603 125.581 117.46 125.902 117.271 126.111C117.134 126.262 116.953 126.375 116.635 126.403C116.378 126.184 116.185 125.851 116.067 125.412C115.931 124.906 115.905 124.293 115.98 123.645C116.132 122.333 116.681 121.026 117.354 120.354ZM123.151 118.979C123.151 118.979 123.151 118.979 123.151 118.978L123.151 118.979ZM123.152 118.904C123.152 118.904 123.152 118.903 123.152 118.903L123.152 118.904Z" fill="#DFCBF8" fill-opacity="0.9" stroke="#8C6AB8"/>
</svg>
