<svg width="256" height="256" viewBox="0 0 256 256" fill="none" xmlns="http://www.w3.org/2000/svg">
<path d="M256 128C256 198.692 198.692 256 128 256C57.3076 256 0 198.692 0 128C0 57.3076 57.3076 0 128 0C198.692 0 256 57.3076 256 128ZM1.02087 128C1.02087 198.129 57.8714 254.979 128 254.979C198.129 254.979 254.979 198.129 254.979 128C254.979 57.8714 198.129 1.02087 128 1.02087C57.8714 1.02087 1.02087 57.8714 1.02087 128Z" fill="#8C6AB8" fill-opacity="0.6"/>
<rect x="93.0239" y="93.2" width="70.9127" height="56.0865" stroke="#8C6AB8" stroke-width="1.6" stroke-linecap="round" stroke-linejoin="round"/>
<path d="M97.1605 123.041C96.8844 123.041 96.6605 122.817 96.6605 122.541V96.9652C96.6605 96.6891 96.8844 96.4652 97.1605 96.4652H112.728H120.512H128.296H136.079H143.863H159.431C159.707 96.4652 159.931 96.6891 159.931 96.9652V122.541C159.931 122.817 159.707 123.041 159.431 123.041H97.1605Z" stroke="#8C6AB8" stroke-linecap="round" stroke-linejoin="round"/>
<path d="M80 156.473C79.7702 156.473 79.5515 156.572 79.3996 156.744C79.2478 156.916 79.1774 157.146 79.2064 157.374L79.7624 161.737C79.8133 162.137 80.1532 162.436 80.556 162.436H175.259C175.649 162.436 175.982 162.155 176.047 161.77L176.789 157.407C176.828 157.174 176.763 156.937 176.611 156.757C176.459 156.577 176.236 156.473 176 156.473H152H140C139.675 156.473 139.382 156.669 139.259 156.97L139.138 157.266H116.862L116.741 156.97C116.618 156.669 116.325 156.473 116 156.473H104H80Z" fill="white" stroke="#8C6AB8" stroke-width="1.6" stroke-linecap="round" stroke-linejoin="round"/>
<rect x="131.019" y="126.747" width="27.9112" height="17.9035" fill="#8C6AB8" stroke="#8C6AB8"/>
<rect x="97.6605" y="126.747" width="28.6525" height="17.9035" fill="white" stroke="#8C6AB8"/>
<path d="M111.346 131.02C111.525 130.632 112.076 130.632 112.254 131.02L113.046 132.737C113.265 133.211 113.714 133.537 114.232 133.599L116.11 133.821C116.534 133.871 116.704 134.395 116.391 134.685L115.002 135.969C114.619 136.323 114.448 136.851 114.549 137.363L114.918 139.218C115.001 139.636 114.556 139.96 114.183 139.751L112.533 138.827C112.078 138.573 111.523 138.573 111.068 138.827L109.417 139.751C109.045 139.96 108.6 139.636 108.683 139.218L109.051 137.363C109.153 136.851 108.981 136.323 108.598 135.969L107.21 134.685C106.897 134.395 107.067 133.871 107.491 133.821L109.369 133.599C109.887 133.537 110.336 133.211 110.554 132.737L111.346 131.02Z" stroke="#8C6AB8"/>
</svg>
