<svg width="380" height="380" viewBox="0 0 380 380" fill="none" xmlns="http://www.w3.org/2000/svg">
<path d="M379.283 189.641C379.283 294.378 294.378 379.283 189.641 379.283C84.9054 379.283 0 294.378 0 189.641C0 84.9054 84.9054 0 189.641 0C294.378 0 379.283 84.9054 379.283 189.641ZM1.44023 189.641C1.44023 293.582 85.7008 377.843 189.641 377.843C293.582 377.843 377.843 293.582 377.843 189.641C377.843 85.7008 293.582 1.44023 189.641 1.44023C85.7008 1.44023 1.44023 85.7008 1.44023 189.641Z" fill="#8C6AB8" fill-opacity="0.6"/>
<rect x="155" y="235" width="151" height="2" fill="#8C6AB8"/>
<rect x="93.1187" y="173" width="132" height="2" fill="#8C6AB8"/>
<rect x="155.119" y="168" width="70" height="2" fill="#DFCBF8"/>
<rect x="155.119" y="240" width="70" height="2" fill="#DFCBF8"/>
<path d="M155 150.57C155 150.57 160.531 153.618 163.607 156.203C166.683 158.788 170.64 163.713 170.64 163.713C170.64 163.713 176.316 157.601 180.505 154.325C186.201 149.871 196.465 144.937 196.465 144.937C196.465 144.937 186.865 150.65 181.444 155.264C176.87 159.157 170.64 166.21 170.64 166.21C170.64 166.21 166.044 159.495 162.668 156.203C159.844 153.449 155 150.57 155 150.57Z" fill="#DFCBF8"/>
<path d="M171.898 149.932C171.898 149.932 175.957 152.169 178.214 154.065C180.471 155.962 183.374 159.576 183.374 159.576C183.374 159.576 187.539 155.091 190.612 152.688C194.792 149.419 202.322 145.799 202.322 145.799C202.322 145.799 195.279 149.991 191.301 153.376C187.945 156.233 183.374 161.408 183.374 161.408C183.374 161.408 180.002 156.481 177.525 154.065C175.453 152.045 171.898 149.932 171.898 149.932Z" fill="#DFCBF8"/>
<path d="M208 148.278C208 148.278 212.059 150.515 214.315 152.411C216.572 154.308 219.476 157.922 219.476 157.922C219.476 157.922 223.64 153.438 226.714 151.034C230.893 147.765 238.424 144.146 238.424 144.146C238.424 144.146 231.38 148.337 227.403 151.723C224.047 154.579 219.476 159.754 219.476 159.754C219.476 159.754 216.103 154.827 213.626 152.411C211.555 150.391 208 148.278 208 148.278Z" fill="#DFCBF8"/>
<path d="M162.51 126.272C162.51 126.272 165.69 127.947 167.44 129.399C169.19 130.852 171.41 133.658 171.41 133.658C171.41 133.658 174.858 129.963 177.379 127.959C180.806 125.234 186.919 122.137 186.919 122.137C186.919 122.137 181.179 125.677 177.91 128.49C175.152 130.863 171.36 135.121 171.36 135.121C171.36 135.121 168.802 131.279 166.89 129.418C165.291 127.862 162.51 126.272 162.51 126.272Z" fill="#DFCBF8"/>
<path d="M115.155 214.168V196.276H110.871L111.179 193H123.499L123.163 196.276H119.243V213.832L115.155 214.168ZM125.279 214L129.703 193.252L135.555 193L140.091 213.832L135.611 214L134.855 209.492H129.843L128.947 214H125.279ZM130.599 206.132H134.099L132.167 196.08L130.599 206.132ZM149.156 204.788H147.56V213.832L143.472 214.168V193.168L148.456 193C150.864 193 152.75 193.485 154.112 194.456C155.475 195.408 156.156 196.873 156.156 198.852C156.156 200.159 155.895 201.232 155.372 202.072C154.868 202.912 154.131 203.612 153.16 204.172L155.036 208.736L156.94 213.272L152.908 214.364L149.156 204.788ZM148.96 201.764C149.931 201.764 150.687 201.568 151.228 201.176C151.788 200.765 152.068 200 152.068 198.88C152.068 197.144 151.21 196.276 149.492 196.276H147.56V201.764H148.96ZM160.424 214.168V193.336L164.54 193V213.832L160.424 214.168ZM178.935 214.364L175.295 204.592L173.699 207.364V214H169.583V193.336L173.699 193V202.184L178.683 193H183.051L178.543 201.68L183.107 213.412L178.935 214.364Z" fill="white"/>
<path d="M196.237 214V193.336L200.325 193V210.724H207.213L206.793 214H196.237ZM216.138 214.392C213.767 214.392 212.096 213.375 211.126 211.34C210.174 209.287 209.698 206.636 209.698 203.388C209.698 199.935 210.211 197.275 211.238 195.408C212.264 193.541 213.916 192.608 216.194 192.608C220.543 192.608 222.718 196.164 222.718 203.276C222.718 206.468 222.223 209.119 221.234 211.228C220.263 213.337 218.564 214.392 216.138 214.392ZM216.194 211.088C217.183 211.088 217.836 210.444 218.154 209.156C218.471 207.849 218.63 205.88 218.63 203.248C218.63 201.139 218.471 199.393 218.154 198.012C217.855 196.612 217.202 195.912 216.194 195.912C215.186 195.912 214.532 196.603 214.234 197.984C213.935 199.365 213.786 201.111 213.786 203.22C213.786 205.871 213.935 207.849 214.234 209.156C214.551 210.444 215.204 211.088 216.194 211.088ZM233.073 214.392C230.982 214.392 229.414 213.72 228.369 212.376C227.324 211.032 226.801 209.268 226.801 207.084V193.168L230.917 193V207.42C230.917 208.148 230.954 208.764 231.029 209.268C231.122 209.772 231.337 210.201 231.673 210.556C232.009 210.911 232.522 211.088 233.213 211.088C233.866 211.088 234.342 210.911 234.641 210.556C234.958 210.183 235.154 209.753 235.229 209.268C235.304 208.764 235.341 208.129 235.341 207.364V193.336L239.093 193V206.608C239.093 208.587 238.701 210.379 237.917 211.984C237.152 213.589 235.537 214.392 233.073 214.392ZM242.379 214L246.803 193.252L252.655 193L257.191 213.832L252.711 214L251.955 209.492H246.943L246.047 214H242.379ZM247.699 206.132H251.199L249.267 196.08L247.699 206.132ZM263.288 214.168V196.276H259.004L259.312 193H271.632L271.296 196.276H267.376V213.832L263.288 214.168ZM273.412 214L277.836 193.252L283.688 193L288.224 213.832L283.744 214L282.988 209.492H277.976L277.08 214H273.412ZM278.732 206.132H282.232L280.3 196.08L278.732 206.132ZM291.605 214.168V193.336L295.721 193V201.512H299.641V193.336L303.757 193V213.832L299.641 214.168V205.264H295.721V213.832L291.605 214.168Z" fill="#8C6AB8"/>
</svg>
