<svg width="256" height="256" viewBox="0 0 256 256" fill="none" xmlns="http://www.w3.org/2000/svg">
<path d="M256 128C256 198.692 198.692 256 128 256C57.3076 256 0 198.692 0 128C0 57.3076 57.3076 0 128 0C198.692 0 256 57.3076 256 128ZM1.02087 128C1.02087 198.129 57.8714 254.979 128 254.979C198.129 254.979 254.979 198.129 254.979 128C254.979 57.8714 198.129 1.02087 128 1.02087C57.8714 1.02087 1.02087 57.8714 1.02087 128Z" fill="#8C6AB8" fill-opacity="0.6"/>
<g clip-path="url(#clip0)">
<path d="M151.724 156.325L151.726 156.332C151.998 157.179 152.26 157.996 152.513 158.785C152.718 159.427 152.917 160.049 153.111 160.652C153.392 161.528 153.643 162.354 153.879 163.132C153.956 163.386 154.032 163.636 154.107 163.88C153.954 163.625 153.798 163.366 153.637 163.101C153.237 162.439 152.814 161.739 152.374 160.983L152.374 160.982C152.078 160.475 151.772 159.951 151.457 159.411C151.017 158.658 150.56 157.874 150.087 157.064L150.084 157.059C149.561 156.179 149.047 155.266 148.514 154.32C148.212 153.784 147.904 153.237 147.585 152.679C147.093 151.803 146.589 150.91 146.079 150.004C145.702 149.333 145.32 148.656 144.938 147.976C144.481 147.14 144.018 146.294 143.553 145.446C143.124 144.662 142.693 143.875 142.264 143.09L142.262 143.087C140.97 140.745 139.705 138.392 138.492 136.105L138.266 135.68H137.785H128.938H128.138V136.48V140.817H127.169V136.48V135.68H126.369H118.045H117.564L117.338 136.106C116.03 138.577 114.658 141.139 113.251 143.684L113.25 143.687C112.353 145.325 111.457 146.964 110.576 148.575C110.175 149.288 109.775 149.997 109.38 150.7C108.889 151.572 108.404 152.434 107.929 153.279C107.606 153.843 107.294 154.397 106.988 154.939C106.459 155.878 105.948 156.784 105.43 157.659L105.428 157.663C104.615 159.053 103.847 160.369 103.14 161.583L103.14 161.584C102.664 162.403 102.203 163.164 101.771 163.879C101.648 164.082 101.527 164.281 101.409 164.477C101.482 164.239 101.556 163.995 101.631 163.747C101.869 162.965 102.121 162.134 102.404 161.252C102.604 160.627 102.81 159.984 103.023 159.321C103.269 158.553 103.523 157.758 103.789 156.933L103.791 156.926C104.104 155.922 104.45 154.899 104.808 153.838C104.995 153.284 105.186 152.719 105.377 152.142C105.852 150.737 106.339 149.293 106.834 147.826L107.103 147.03C107.104 147.028 107.104 147.027 107.105 147.025C107.333 146.374 107.564 145.718 107.795 145.06C108.178 143.968 108.564 142.869 108.949 141.77L108.95 141.767C109.535 140.083 110.132 138.404 110.73 136.752L111.119 135.679H109.978H106.877V134.451H111.004H111.562L111.755 133.926C111.802 133.799 111.848 133.671 111.895 133.544C112.153 132.84 112.408 132.146 112.661 131.462L112.662 131.461C113.87 128.182 115.022 125.132 116.02 122.522C116.766 120.588 117.42 118.893 117.948 117.526C118.132 117.051 118.3 116.616 118.451 116.224C118.58 115.901 118.684 115.627 118.774 115.39C118.865 115.151 118.941 114.951 119.012 114.78L119.655 114.509L119.164 113.715C118.219 112.186 117.664 110.396 117.664 108.477C117.664 103.707 121.031 99.7086 125.512 98.7255L126.141 98.5876V97.9441V86.8H129.164V97.9431V98.5868L129.792 98.7245C134.278 99.7076 137.641 103.706 137.641 108.476C137.641 110.204 137.201 111.829 136.428 113.245L136.231 113.604L136.408 113.974C136.514 114.194 136.616 114.465 136.751 114.82C136.838 115.049 136.939 115.314 137.062 115.623C137.392 116.477 137.801 117.535 138.274 118.76C138.644 119.718 139.053 120.779 139.495 121.923C140.492 124.534 141.644 127.583 142.852 130.861L142.852 130.862C143.221 131.863 143.598 132.888 143.978 133.924L144.17 134.449H144.729H148.431V135.676H145.751H144.613L144.998 136.746C145.522 138.207 146.047 139.683 146.563 141.168L146.564 141.17C147.183 142.93 147.802 144.691 148.409 146.425C148.762 147.472 149.113 148.511 149.458 149.532C149.687 150.209 149.913 150.879 150.136 151.539C150.332 152.131 150.528 152.709 150.719 153.275C151.073 154.323 151.414 155.332 151.724 156.325ZM128.139 133.651V134.451L128.939 134.451L136.292 134.449L137.619 134.449L137 133.275C135.4 130.245 133.934 127.404 132.68 124.959C131.759 123.143 130.948 121.547 130.29 120.252C130.045 119.77 129.821 119.33 129.621 118.936L129.617 118.926L129.612 118.917C129.6 118.895 129.594 118.882 129.571 118.837L129.321 118.338L128.767 118.399C128.396 118.44 128.025 118.465 127.654 118.465C127.484 118.465 127.317 118.453 127.12 118.439C127.081 118.437 127.042 118.434 127.001 118.431L126.48 118.395L126.238 118.858C126.128 119.067 126.014 119.29 125.891 119.538C125.372 120.562 124.695 121.895 123.898 123.463C123.564 124.122 123.208 124.822 122.835 125.558C121.666 127.839 120.303 130.475 118.829 133.278L118.213 134.45H119.537H126.37H127.17V133.65V130.597H128.139V133.651ZM136.159 108.477C136.159 103.786 132.343 99.9703 127.653 99.9703C122.962 99.9703 119.146 103.786 119.146 108.477C119.146 113.167 122.961 116.983 127.653 116.983C132.342 116.983 136.159 113.168 136.159 108.477Z" fill="#DFCBF8" stroke="#8C6AB8" stroke-width="1.6"/>
<path d="M131.421 108.22C131.421 110.24 129.776 111.884 127.757 111.884C125.737 111.884 124.092 110.241 124.092 108.221C124.092 106.201 125.737 104.557 127.757 104.557C129.776 104.557 131.421 106.2 131.421 108.22Z" fill="white" stroke="#8C6AB8"/>
</g>
<defs>
<clipPath id="clip0">
<rect width="84" height="84" fill="white" transform="translate(86 86)"/>
</clipPath>
</defs>
</svg>
