<svg width="256" height="256" viewBox="0 0 256 256" fill="none" xmlns="http://www.w3.org/2000/svg">
<path d="M256 128C256 198.692 198.692 256 128 256C57.3076 256 0 198.692 0 128C0 57.3076 57.3076 0 128 0C198.692 0 256 57.3076 256 128ZM1.02087 128C1.02087 198.129 57.8714 254.979 128 254.979C198.129 254.979 254.979 198.129 254.979 128C254.979 57.8714 198.129 1.02087 128 1.02087C57.8714 1.02087 1.02087 57.8714 1.02087 128Z" fill="#8C6AB8" fill-opacity="0.6"/>
<path d="M102.319 102.215C102.319 101.663 102.767 101.215 103.319 101.215H115.165C115.717 101.215 116.165 101.663 116.165 102.215V114.061C116.165 114.614 115.717 115.061 115.165 115.061H103.319C102.767 115.061 102.319 114.614 102.319 114.061V102.215Z" fill="#DFCBF8"/>
<path d="M116.161 169.444C116.161 169.997 115.714 170.444 115.161 170.444L103.315 170.444C102.763 170.444 102.315 169.997 102.315 169.444L102.315 157.598C102.315 157.046 102.763 156.598 103.315 156.598L115.161 156.598C115.714 156.598 116.161 157.046 116.161 157.598L116.161 169.444Z" fill="#DFCBF8"/>
<path d="M142.855 128.907C143.408 128.907 143.855 129.354 143.855 129.907L143.855 141.753C143.855 142.305 143.408 142.753 142.855 142.753L131.009 142.753C130.457 142.753 130.009 142.305 130.009 141.753L130.009 129.907C130.009 129.354 130.457 128.907 131.009 128.907L142.855 128.907Z" fill="#DFCBF8"/>
<path d="M75.625 142.753C75.0727 142.753 74.625 142.306 74.625 141.753L74.625 129.907C74.625 129.355 75.0727 128.907 75.625 128.907L87.4709 128.908C88.0232 128.908 88.4709 129.355 88.4709 129.908L88.4709 141.753C88.4709 142.306 88.0232 142.753 87.4709 142.753L75.625 142.753Z" fill="#DFCBF8"/>
<path d="M128.109 107.165C128.5 106.775 129.133 106.775 129.524 107.165L137.9 115.541C138.29 115.932 138.29 116.565 137.9 116.956L129.524 125.332C129.133 125.723 128.5 125.723 128.109 125.332L119.733 116.956C119.342 116.565 119.342 115.932 119.733 115.541L128.109 107.165Z" fill="#DFCBF8"/>
<path d="M90.369 164.495C89.9784 164.886 89.3453 164.886 88.9548 164.495L80.5784 156.119C80.1879 155.728 80.1879 155.095 80.5784 154.704L88.9548 146.328C89.3453 145.938 89.9784 145.938 90.369 146.328L98.7453 154.705C99.1358 155.095 99.1358 155.728 98.7453 156.119L90.369 164.495Z" fill="#DFCBF8"/>
<path d="M137.904 154.701C138.295 155.091 138.295 155.724 137.904 156.115L129.528 164.491C129.137 164.882 128.504 164.882 128.114 164.491L119.737 156.115C119.347 155.724 119.347 155.091 119.737 154.701L128.114 146.324C128.504 145.934 129.137 145.934 129.528 146.324L137.904 154.701Z" fill="#DFCBF8"/>
<path d="M80.5741 116.957C80.1835 116.567 80.1835 115.933 80.5741 115.543L88.9504 107.167C89.3409 106.776 89.9741 106.776 90.3646 107.167L98.7409 115.543C99.1314 115.933 99.1314 116.567 98.7409 116.957L90.3646 125.333C89.9741 125.724 89.3409 125.724 88.9504 125.333L80.5741 116.957Z" fill="#DFCBF8"/>
<path d="M134.624 135.83C134.624 149.849 123.259 161.214 109.24 161.214C95.2206 161.214 83.8557 149.849 83.8557 135.83C83.8557 121.811 95.2206 110.446 109.24 110.446C123.259 110.446 134.624 121.811 134.624 135.83ZM90.7147 135.83C90.7147 146.061 99.0087 154.355 109.24 154.355C119.471 154.355 127.765 146.061 127.765 135.83C127.765 125.599 119.471 117.305 109.24 117.305C99.0087 117.305 90.7147 125.599 90.7147 135.83Z" fill="#DFCBF8"/>
<path d="M155.098 85.7915C155.098 85.2392 155.546 84.7915 156.098 84.7915H162.858C163.41 84.7915 163.858 85.2392 163.858 85.7915V92.5508C163.858 93.1031 163.41 93.5508 162.858 93.5508H156.098C155.546 93.5508 155.098 93.1031 155.098 92.5508V85.7915Z" fill="#DFCBF8"/>
<path d="M163.858 127.588C163.858 128.14 163.41 128.588 162.858 128.588L156.098 128.588C155.546 128.588 155.098 128.14 155.098 127.588L155.098 120.829C155.098 120.276 155.546 119.829 156.098 119.829L162.858 119.829C163.41 119.829 163.858 120.276 163.858 120.829L163.858 127.588Z" fill="#DFCBF8"/>
<path d="M180.376 102.31C180.928 102.31 181.376 102.758 181.376 103.31L181.376 110.069C181.376 110.622 180.928 111.069 180.376 111.069L173.617 111.069C173.064 111.069 172.617 110.622 172.617 110.069L172.617 103.31C172.617 102.758 173.064 102.31 173.617 102.31L180.376 102.31Z" fill="#DFCBF8"/>
<path d="M138.58 111.07C138.028 111.07 137.58 110.622 137.58 110.07L137.58 103.31C137.58 102.758 138.028 102.31 138.58 102.31L145.339 102.31C145.892 102.31 146.339 102.758 146.339 103.31L146.339 110.07C146.339 110.622 145.892 111.07 145.339 111.07L138.58 111.07Z" fill="#DFCBF8"/>
<path d="M171.16 88.815C171.55 88.4245 172.183 88.4245 172.574 88.815L177.353 93.5946C177.744 93.9851 177.744 94.6183 177.353 95.0088L172.574 99.7884C172.183 100.179 171.55 100.179 171.16 99.7884L166.38 95.0088C165.989 94.6183 165.989 93.9851 166.38 93.5946L171.16 88.815Z" fill="#DFCBF8"/>
<path d="M147.801 124.564C147.411 124.955 146.777 124.955 146.387 124.564L141.607 119.785C141.217 119.394 141.217 118.761 141.607 118.371L146.387 113.591C146.777 113.2 147.411 113.2 147.801 113.591L152.581 118.371C152.971 118.761 152.971 119.394 152.581 119.785L147.801 124.564Z" fill="#DFCBF8"/>
<path d="M177.353 118.368C177.744 118.759 177.744 119.392 177.353 119.782L172.574 124.562C172.183 124.952 171.55 124.952 171.159 124.562L166.38 119.782C165.989 119.392 165.989 118.759 166.38 118.368L171.159 113.589C171.55 113.198 172.183 113.198 172.574 113.589L177.353 118.368Z" fill="#DFCBF8"/>
<path d="M141.6 95.0098C141.21 94.6193 141.21 93.9862 141.6 93.5956L146.38 88.8161C146.771 88.4255 147.404 88.4255 147.794 88.8161L152.574 93.5956C152.964 93.9862 152.964 94.6193 152.574 95.0098L147.794 99.7894C147.404 100.18 146.771 100.18 146.38 99.7894L141.6 95.0098Z" fill="#DFCBF8"/>
<path d="M175.538 106.69C175.538 115.559 168.348 122.748 159.479 122.748C150.61 122.748 143.42 115.559 143.42 106.69C143.42 97.8206 150.61 90.6309 159.479 90.6309C168.348 90.6309 175.538 97.8206 175.538 106.69ZM154.661 106.69C154.661 109.35 156.818 111.507 159.479 111.507C162.14 111.507 164.297 109.35 164.297 106.69C164.297 104.029 162.14 101.872 159.479 101.872C156.818 101.872 154.661 104.029 154.661 106.69Z" fill="#DFCBF8"/>
<mask id="path-20-inside-1" fill="white">
<path d="M118.133 124.421C118.399 124.152 118.714 123.939 119.061 123.793C119.408 123.648 119.78 123.573 120.155 123.573C120.53 123.573 120.902 123.648 121.249 123.793C121.596 123.939 121.911 124.152 122.177 124.421C122.442 124.69 122.653 125.009 122.796 125.36C122.94 125.711 123.014 126.088 123.014 126.468C123.014 126.848 122.94 127.225 122.796 127.576C122.653 127.927 122.442 128.246 122.177 128.515L120.155 126.468L118.133 124.421Z"/>
</mask>
<path d="M118.133 124.421C118.399 124.152 118.714 123.939 119.061 123.793C119.408 123.648 119.78 123.573 120.155 123.573C120.53 123.573 120.902 123.648 121.249 123.793C121.596 123.939 121.911 124.152 122.177 124.421C122.442 124.69 122.653 125.009 122.796 125.36C122.94 125.711 123.014 126.088 123.014 126.468C123.014 126.848 122.94 127.225 122.796 127.576C122.653 127.927 122.442 128.246 122.177 128.515L120.155 126.468L118.133 124.421Z" stroke="#8C6AB8" stroke-width="2" mask="url(#path-20-inside-1)"/>
<path d="M110.832 120.698V122.003C110.185 121.908 109.522 121.86 108.849 121.86C108.124 121.86 107.412 121.916 106.718 122.025V120.698H110.832ZM108.846 122.867L111.248 123.279L111.832 123.38V123.214C117.554 124.596 121.826 129.866 121.826 136.174C121.826 143.539 116.004 149.488 108.849 149.488C101.694 149.488 95.8721 143.539 95.8721 136.174C95.8721 129.92 100.07 124.687 105.718 123.25V123.374L106.298 123.28L108.846 122.867ZM108.581 147.097C114.412 147.097 119.117 142.256 119.117 136.31C119.117 130.364 114.412 125.523 108.581 125.523C102.751 125.523 98.0454 130.364 98.0454 136.31C98.0454 142.256 102.751 147.097 108.581 147.097Z" fill="#8C6AB8" stroke="#8C6AB8"/>
<path d="M112.284 133.847C112.087 134.161 111.862 134.516 111.626 134.879C111.258 135.446 110.867 136.029 110.518 136.508C110.155 137.008 109.878 137.336 109.734 137.45C109.082 137.963 108.248 137.85 107.852 137.333C107.455 136.817 107.554 135.971 108.205 135.458C108.35 135.344 108.733 135.154 109.301 134.921C109.845 134.698 110.499 134.458 111.133 134.237C111.539 134.095 111.934 133.962 112.284 133.847Z" stroke="#8C6AB8"/>
</svg>
