<svg width="256" height="256" viewBox="0 0 256 256" fill="none" xmlns="http://www.w3.org/2000/svg">
<path d="M256 128C256 198.692 198.692 256 128 256C57.3076 256 0 198.692 0 128C0 57.3076 57.3076 0 128 0C198.692 0 256 57.3076 256 128ZM1.02087 128C1.02087 198.129 57.8714 254.979 128 254.979C198.129 254.979 254.979 198.129 254.979 128C254.979 57.8714 198.129 1.02087 128 1.02087C57.8714 1.02087 1.02087 57.8714 1.02087 128Z" fill="#8C6AB8" fill-opacity="0.6"/>
<path d="M127 151.333C127 157.494 121.964 162.5 115.752 162.5C109.54 162.5 104.505 157.494 104.505 151.333C104.505 145.173 109.54 140.167 115.752 140.167H127V151.333Z" fill="white" stroke="#8C6AB8"/>
<path d="M104.505 128C104.505 121.84 109.54 116.833 115.752 116.833H127V139.167H115.752C109.54 139.167 104.505 134.161 104.505 128Z" fill="white" stroke="#8C6AB8"/>
<path d="M104.505 104.667C104.505 98.5061 109.541 93.5 115.753 93.5H127V115.833H115.753C109.541 115.833 104.505 110.827 104.505 104.667Z" stroke="#8C6AB8"/>
<path d="M128 93.5H139.248C145.459 93.5 150.495 98.5061 150.495 104.667C150.495 110.827 145.459 115.833 139.248 115.833H128V93.5Z" fill="white" stroke="#8C6AB8"/>
<path d="M150.495 128C150.495 134.161 145.459 139.167 139.248 139.167C133.036 139.167 128 134.161 128 128C128 121.84 133.036 116.833 139.248 116.833C145.459 116.833 150.495 121.84 150.495 128Z" fill="#8C6AB8" stroke="#8C6AB8"/>
</svg>
