<svg width="416" height="416" viewBox="0 0 416 416" fill="none" xmlns="http://www.w3.org/2000/svg">
<path d="M208 8.00002C234.264 8.00002 260.272 13.1732 284.537 23.2241C308.802 33.2751 330.85 48.0069 349.421 66.5787C367.993 85.1504 382.725 107.198 392.776 131.463C402.827 155.728 408 181.736 408 208C408 234.264 402.827 260.272 392.776 284.537C382.725 308.802 367.993 330.85 349.421 349.421C330.85 367.993 308.802 382.725 284.537 392.776C260.272 402.827 234.264 408 208 408C181.736 408 155.728 402.827 131.463 392.776C107.198 382.725 85.1503 367.993 66.5786 349.421C48.0069 330.85 33.275 308.802 23.2241 284.537C13.1731 260.272 7.99999 234.264 7.99999 208C7.99999 181.736 13.1731 155.728 23.2241 131.463C33.275 107.198 48.0069 85.1504 66.5787 66.5787C85.1504 48.0069 107.198 33.275 131.463 23.2241C155.728 13.1732 181.736 8.00002 208 8.00002L208 8.00002Z" stroke="#DFCBF8" stroke-width="16" stroke-miterlimit="4.13936" stroke-linecap="square" stroke-linejoin="bevel" stroke-dasharray="48 48"/>
</svg>
