<svg width="69" height="16" viewBox="0 0 69 16" fill="none" xmlns="http://www.w3.org/2000/svg">
<path d="M0 2C0 0.895433 0.89543 0 2 0H4.49412C5.59868 0 6.49412 0.895431 6.49412 2V5.4203C6.49412 6.43469 7.24741 7.28679 8.25584 7.39662C12.8891 7.90119 25.6658 9.19912 34.5 9.19912C43.3342 9.19912 56.1109 7.90119 60.7442 7.39662C61.7526 7.28679 62.5059 6.43469 62.5059 5.4203V2C62.5059 0.895431 63.4013 0 64.5059 0H67C68.1046 0 69 0.895431 69 2V11.4543C69 12.4538 68.2736 13.2974 67.2822 13.4245C62.0022 14.1011 45.693 16.0624 34.5 15.9985C23.28 15.9344 6.94886 13.777 1.69508 13.0415C0.713851 12.9042 0 12.0654 0 11.0746V2Z" fill="#DFCBF8"/>
</svg>
