<svg width="48" height="48" viewBox="0 0 48 48" fill="none" xmlns="http://www.w3.org/2000/svg">
<path d="M24 6C14.0595 6 6 14.0595 6 24C6 33.9416 14.0595 42 24 42C33.9405 42 42 33.9416 42 24C41.9999 14.0595 33.9404 6 24 6ZM29.0421 37.7125C28.9386 36.304 28.8228 34.5592 28.816 33.8527C28.771 33.3104 28.7124 31.9312 27.403 31.0504C32.6016 30.615 35.0754 27.7417 35.2533 23.9449C35.4018 21.7827 34.5422 19.8814 33.0157 18.3469C33.0933 16.7056 32.9661 14.7604 32.8605 13.9055C31.6882 13.568 28.9545 15.0114 28.1906 15.629C26.5795 15.0035 22.6365 14.7841 20.2402 15.629C18.5414 14.4343 16.6076 13.6963 15.5535 13.9022C14.5803 16.0588 15.2059 18.0973 15.3959 18.3402C14.1426 19.4855 12.3944 20.8952 12.8692 23.8482C13.6308 28.1783 16.6773 30.5139 21.5822 31.0853C20.5361 31.2991 20.3593 32.0799 20.2716 32.4185C16.9776 33.7774 16.0361 31.5793 15.6197 31.0066C14.2372 29.2955 12.9962 29.7916 12.9197 29.8186C12.8455 29.8455 12.7892 29.9535 12.7971 30.0053C12.8668 30.3743 13.6195 30.7489 13.6566 30.7792C14.677 31.5397 15.055 32.9134 15.2878 33.3049C16.7514 35.7112 20.1535 34.7134 20.1861 34.7336C20.1883 34.944 20.1625 36.7148 20.1422 38.0929C13.9391 36.3986 9.37497 30.7398 9.37497 24C9.37497 15.9225 15.9225 9.37509 23.9999 9.37509C32.0773 9.37509 38.6249 15.9225 38.6249 24C38.6249 30.3033 34.6312 35.6571 29.0421 37.7125Z" fill="#DFCBF8"/>
</svg>
