<svg width="28" height="28" viewBox="0 0 28 28" fill="none" xmlns="http://www.w3.org/2000/svg">
<path d="M14.0439 9.04688C13.7568 9.04688 13.5254 9.04102 13.3496 9.0293C13.1797 9.01758 13.0479 8.99414 12.9541 8.95898C12.8662 8.92383 12.8047 8.87402 12.7695 8.80957C12.7402 8.74512 12.7256 8.65723 12.7256 8.5459L12.6201 6.83203C12.6201 6.70898 12.6318 6.60645 12.6553 6.52441C12.6846 6.43652 12.749 6.36914 12.8486 6.32227C12.9482 6.27539 13.0918 6.24316 13.2793 6.22559C13.4727 6.20215 13.7275 6.19043 14.0439 6.19043C14.3604 6.19043 14.6123 6.20215 14.7998 6.22559C14.9932 6.24316 15.1396 6.27539 15.2393 6.32227C15.3389 6.36914 15.4004 6.43652 15.4238 6.52441C15.4531 6.60645 15.4678 6.70898 15.4678 6.83203L15.3711 8.5459C15.3711 8.65723 15.3535 8.74512 15.3184 8.80957C15.2891 8.87402 15.2275 8.92383 15.1338 8.95898C15.04 8.99414 14.9053 9.01758 14.7295 9.0293C14.5596 9.04102 14.3311 9.04688 14.0439 9.04688ZM12.5674 11.0771C12.5674 10.9541 12.5791 10.8516 12.6025 10.7695C12.6318 10.6816 12.6963 10.6143 12.7959 10.5674C12.8955 10.5205 13.0391 10.4883 13.2266 10.4707C13.4199 10.4473 13.6748 10.4355 13.9912 10.4355C14.3076 10.4355 14.5596 10.4473 14.7471 10.4707C14.9404 10.4883 15.0869 10.5205 15.1865 10.5674C15.2861 10.6143 15.3477 10.6816 15.3711 10.7695C15.4004 10.8516 15.415 10.9541 15.415 11.0771L15.1426 20.499C15.1426 20.6104 15.1279 20.6982 15.0986 20.7627C15.0693 20.8271 15.0137 20.877 14.9316 20.9121C14.8496 20.9473 14.7324 20.9707 14.5801 20.9824C14.4336 20.9941 14.2373 21 13.9912 21C13.7451 21 13.5459 20.9941 13.3936 20.9824C13.2471 20.9707 13.1328 20.9473 13.0508 20.9121C12.9746 20.877 12.9219 20.8271 12.8926 20.7627C12.8633 20.6982 12.8486 20.6104 12.8486 20.499L12.5674 11.0771Z" fill="#8C6AB8"/>
<circle cx="14" cy="14" r="13.5" stroke="#8C6AB8"/>
</svg>
