<svg width="32" height="32" viewBox="0 0 32 32" fill="none" xmlns="http://www.w3.org/2000/svg">
<path d="M27.625 14.5639C27.625 20.8909 22.3364 23.1278 15.8125 23.1278C14.9124 23.1278 13.6261 23.139 12.7837 23.0625C12.7837 23.0625 11.8855 24.6689 10.4141 25.812C8.7471 27.1069 7.2202 27.0454 6.83286 26.9623C6.83286 26.9623 7.46471 26.2765 8.16914 24.8533C8.86982 23.4378 8.94922 22.1161 8.59675 21.9657C5.80068 20.7724 3.99999 18.5168 4 14.5639C4.00003 7.78947 9.28864 6 15.8125 6C22.3364 6 27.625 8.23683 27.625 14.5639Z" fill="white"/>
<path d="M7.60864 14.2891C7.59562 14.1523 7.60538 14.0384 7.63793 13.9473C7.67048 13.8496 7.7421 13.7747 7.85278 13.7227C7.96345 13.6706 8.12621 13.6348 8.34106 13.6152C8.5559 13.5892 8.8391 13.5762 9.19067 13.5762C9.54223 13.5762 9.82218 13.5892 10.0305 13.6152C10.2454 13.6348 10.4081 13.6706 10.5188 13.7227C10.636 13.7747 10.7076 13.8496 10.7336 13.9473C10.7662 14.0384 10.7792 14.1523 10.7727 14.2891L10.6653 16.1934C10.6588 16.3171 10.636 16.4147 10.5969 16.4863C10.5644 16.5579 10.496 16.6133 10.3918 16.6523C10.2877 16.6914 10.1412 16.7174 9.95239 16.7305C9.76358 16.7435 9.50968 16.75 9.19067 16.75C8.87166 16.75 8.61775 16.7435 8.42895 16.7305C8.24015 16.7174 8.09366 16.6914 7.9895 16.6523C7.89184 16.6133 7.82348 16.5579 7.78442 16.4863C7.75187 16.4147 7.73233 16.3171 7.72582 16.1934L7.60864 14.2891ZM14.668 14.2891C14.655 14.1523 14.6648 14.0384 14.6973 13.9473C14.7299 13.8496 14.8015 13.7747 14.9122 13.7227C15.0228 13.6706 15.1856 13.6348 15.4004 13.6152C15.6153 13.5892 15.8985 13.5762 16.25 13.5762C16.6016 13.5762 16.8816 13.5892 17.0899 13.6152C17.3047 13.6348 17.4675 13.6706 17.5782 13.7227C17.6954 13.7747 17.767 13.8496 17.793 13.9473C17.8256 14.0384 17.8386 14.1523 17.8321 14.2891L17.7247 16.1934C17.7181 16.3171 17.6954 16.4147 17.6563 16.4863C17.6237 16.5579 17.5554 16.6133 17.4512 16.6523C17.347 16.6914 17.2006 16.7174 17.0118 16.7305C16.823 16.7435 16.5691 16.75 16.25 16.75C15.931 16.75 15.6771 16.7435 15.4883 16.7305C15.2995 16.7174 15.153 16.6914 15.0489 16.6523C14.9512 16.6133 14.8829 16.5579 14.8438 16.4863C14.8112 16.4147 14.7917 16.3171 14.7852 16.1934L14.668 14.2891ZM21.7274 14.2891C21.7144 14.1523 21.7241 14.0384 21.7567 13.9473C21.7892 13.8496 21.8608 13.7747 21.9715 13.7227C22.0822 13.6706 22.245 13.6348 22.4598 13.6152C22.6747 13.5892 22.9579 13.5762 23.3094 13.5762C23.661 13.5762 23.9409 13.5892 24.1493 13.6152C24.3641 13.6348 24.5269 13.6706 24.6375 13.7227C24.7547 13.7747 24.8263 13.8496 24.8524 13.9473C24.8849 14.0384 24.898 14.1523 24.8914 14.2891L24.784 16.1934C24.7775 16.3171 24.7547 16.4147 24.7157 16.4863C24.6831 16.5579 24.6148 16.6133 24.5106 16.6523C24.4064 16.6914 24.2599 16.7174 24.0711 16.7305C23.8823 16.7435 23.6284 16.75 23.3094 16.75C22.9904 16.75 22.7365 16.7435 22.5477 16.7305C22.3589 16.7174 22.2124 16.6914 22.1082 16.6523C22.0106 16.6133 21.9422 16.5579 21.9032 16.4863C21.8706 16.4147 21.8511 16.3171 21.8446 16.1934L21.7274 14.2891Z" fill="#8C6AB8"/>
</svg>
