<svg width="32" height="32" viewBox="0 0 32 32" fill="none" xmlns="http://www.w3.org/2000/svg">
<path d="M5.00017 12C5.00017 12 -0.499827 27.5 9.50017 27.5C19.5002 27.5 9.50021 5 20.5 5C31.4997 5 25.0001 20.5 25.0001 20.5" stroke="white" stroke-width="2" stroke-dasharray="8 2"/>
<mask id="path-2-inside-1" fill="white">
<path d="M10 6C10 8.20914 8.20914 10 6 10C3.79086 10 2 8.20914 2 6C2 3.79086 3.79086 2 6 2C8.20914 2 10 3.79086 10 6ZM3.94049 6C3.94049 7.13744 4.86256 8.05951 6 8.05951C7.13744 8.05951 8.05951 7.13744 8.05951 6C8.05951 4.86256 7.13744 3.94049 6 3.94049C4.86256 3.94049 3.94049 4.86256 3.94049 6Z"/>
</mask>
<path d="M10 6C10 8.20914 8.20914 10 6 10C3.79086 10 2 8.20914 2 6C2 3.79086 3.79086 2 6 2C8.20914 2 10 3.79086 10 6ZM3.94049 6C3.94049 7.13744 4.86256 8.05951 6 8.05951C7.13744 8.05951 8.05951 7.13744 8.05951 6C8.05951 4.86256 7.13744 3.94049 6 3.94049C4.86256 3.94049 3.94049 4.86256 3.94049 6Z" fill="#C4C4C4" stroke="white" stroke-width="10" mask="url(#path-2-inside-1)"/>
<line x1="28.0734" y1="28.7804" x2="21.3539" y2="22.0609" stroke="white" stroke-width="3"/>
<line x1="28.7801" y1="22.0607" x2="22.0606" y2="28.7802" stroke="white" stroke-width="3"/>
</svg>
