<svg width="32" height="32" viewBox="0 0 32 32" fill="none" xmlns="http://www.w3.org/2000/svg">
<path d="M21.2858 7.57153H10.6573C10.5626 7.57153 10.4858 7.64828 10.4858 7.74296V24.2001C10.4858 24.2948 10.5626 24.3715 10.6573 24.3715H21.2858C21.3805 24.3715 21.4573 24.2948 21.4573 24.2001V7.74296C21.4573 7.64828 21.3805 7.57153 21.2858 7.57153Z" fill="white"/>
<path d="M18.4932 9.24976H13.3504C13.2557 9.24976 13.179 9.32651 13.179 9.42118V9.76404C13.179 9.85872 13.2557 9.93547 13.3504 9.93547H18.4932C18.5879 9.93547 18.6647 9.85872 18.6647 9.76404V9.42118C18.6647 9.32651 18.5879 9.24976 18.4932 9.24976Z" fill="#8C6AB8"/>
<path d="M19.6933 11.4253H12.1504C12.0558 11.4253 11.979 11.502 11.979 11.5967V11.9396C11.979 12.0343 12.0558 12.111 12.1504 12.111H19.6933C19.788 12.111 19.8647 12.0343 19.8647 11.9396V11.5967C19.8647 11.502 19.788 11.4253 19.6933 11.4253Z" fill="#8C6AB8"/>
<path d="M19.7428 13.4309H12.2C12.1053 13.4309 12.0286 13.5077 12.0286 13.6023V13.9452C12.0286 14.0399 12.1053 14.1166 12.2 14.1166H19.7428C19.8375 14.1166 19.9143 14.0399 19.9143 13.9452V13.6023C19.9143 13.5077 19.8375 13.4309 19.7428 13.4309Z" fill="#8C6AB8"/>
<path d="M19.7428 15.4382H12.2C12.1053 15.4382 12.0286 15.515 12.0286 15.6097V15.9525C12.0286 16.0472 12.1053 16.1239 12.2 16.1239H19.7428C19.8375 16.1239 19.9143 16.0472 19.9143 15.9525V15.6097C19.9143 15.515 19.8375 15.4382 19.7428 15.4382Z" fill="#8C6AB8"/>
<path d="M19.7428 17.4441H12.2C12.1053 17.4441 12.0286 17.5208 12.0286 17.6155V17.9584C12.0286 18.0531 12.1053 18.1298 12.2 18.1298H19.7428C19.8375 18.1298 19.9143 18.0531 19.9143 17.9584V17.6155C19.9143 17.5208 19.8375 17.4441 19.7428 17.4441Z" fill="#8C6AB8"/>
<path d="M19.7428 19.4514H12.2C12.1053 19.4514 12.0286 19.5282 12.0286 19.6228V19.9657C12.0286 20.0604 12.1053 20.1371 12.2 20.1371H19.7428C19.8375 20.1371 19.9143 20.0604 19.9143 19.9657V19.6228C19.9143 19.5282 19.8375 19.4514 19.7428 19.4514Z" fill="#8C6AB8"/>
<path d="M20.8696 7.54759H20.8196H20.7465H20.6965V7.49759C20.6965 7.35316 20.6498 7.26119 20.5885 7.20494C20.5261 7.14778 20.4432 7.12258 20.3631 7.12258C20.2861 7.12258 20.206 7.15297 20.1449 7.21718C20.0842 7.28101 20.0393 7.38155 20.0393 7.52686V9.21029C20.0393 9.23862 20.0449 9.26667 20.0558 9.29284C20.0666 9.31901 20.0825 9.34279 20.1025 9.36283C20.1226 9.38286 20.1463 9.39875 20.1725 9.40959C20.1987 9.42043 20.2267 9.42601 20.2551 9.42601C20.2834 9.42601 20.3114 9.42043 20.3376 9.40959C20.3638 9.39875 20.3876 9.38286 20.4076 9.36282C20.4276 9.34279 20.4435 9.31901 20.4543 9.29284C20.4652 9.26667 20.4708 9.23862 20.4708 9.21029V7.68115C20.4708 7.6588 20.4796 7.63736 20.4955 7.62155C20.5113 7.60574 20.5327 7.59686 20.5551 7.59686L20.5893 7.59686L20.5893 7.59686M20.8696 7.54759L20.613 7.657C20.61 7.65379 20.6063 7.65124 20.6022 7.6495C20.5981 7.64775 20.5938 7.64686 20.5893 7.64686V7.59686M20.8696 7.54759V7.49759M20.8696 7.54759V7.49759M20.5893 7.59686C20.6005 7.59686 20.6116 7.59913 20.6219 7.60354C20.6322 7.60796 20.6415 7.61443 20.6493 7.62256C20.657 7.6307 20.663 7.64032 20.6669 7.65085C20.6705 7.66086 20.6723 7.6715 20.6719 7.68217M20.5893 7.59686L20.6719 7.68217M20.6719 7.68217C20.6719 7.6827 20.6719 7.68324 20.6718 7.68378L20.6219 7.68115H20.6719V7.68217ZM20.8696 7.49759C20.8696 7.34939 20.8291 7.20601 20.7434 7.09855C20.6565 6.9897 20.5261 6.92144 20.3562 6.92144C20.1845 6.92144 20.05 6.99845 19.9597 7.11348C19.8702 7.22741 19.8245 7.37757 19.8245 7.52686V9.20946C19.8226 9.26832 19.8332 9.32691 19.8556 9.38139C19.8781 9.43613 19.912 9.48546 19.955 9.52609L19.955 9.5261M20.8696 7.49759L19.955 9.5261M19.955 9.5261L19.9562 9.52715L19.955 9.5261ZM20.818 7.44759C20.8191 7.46411 20.8196 7.48079 20.8196 7.49759V7.44759H20.818ZM20.6219 9.21029H20.6719V9.20922C20.6719 9.20884 20.6719 9.20846 20.6719 9.20808L20.6219 9.21029ZM20.2458 9.63403C20.2464 9.63402 20.247 9.63401 20.2476 9.63399L20.2465 9.58401L20.244 9.63395C20.2446 9.63398 20.2452 9.634 20.2458 9.63403Z" fill="#59308D" stroke="#59308D" stroke-width="0.1"/>
</svg>
