<svg width="48" height="48" viewBox="0 0 48 48" fill="none" xmlns="http://www.w3.org/2000/svg">
<rect width="48" height="48" fill="white"/>
<path d="M10 40.0001V12.0001L15.25 13.0032L20.5 14.0064L25.75 15.0096L31 16.0128V36.6115L25.75 37.4587L20.5 38.3058L15.25 39.1529L10 40.0001Z" fill="white"/>
<path d="M20.5 14.0064V38.3058M20.5 14.0064L25.75 15.0096M20.5 14.0064L15.25 13.0032M20.5 38.3058L25.75 37.4587M20.5 38.3058L15.25 39.1529M25.75 37.4587L31 36.6115V16.0128L25.75 15.0096M25.75 37.4587V15.0096M15.25 13.0032L10 12.0001V40.0001L15.25 39.1529M15.25 13.0032V39.1529" stroke="#C7BDBD" stroke-width="2.6"/>
<path d="M22.377 22.6841C23.3393 21.8418 24.197 21.7368 25.1053 21.9734C29.7503 15.9934 36.6683 7.32636 36.9956 6.96705C37.323 6.60775 38.1056 4.98728 40.2662 6.60773C42.4268 8.22818 41.4926 9.30565 41.3169 9.66771C41.1412 10.0298 28.3362 24.6169 28.3362 24.6169C28.3362 24.6169 29.2132 25.413 28.6299 26.9667L23.8236 33.7643L16.963 28.0113L22.377 22.6841Z" fill="#C7BDBD"/>
<path d="M28.3362 24.6169C28.3362 24.6169 29.2132 25.413 28.6299 26.9667L23.8236 33.7643L16.963 28.0113L22.377 22.6841C23.3393 21.8418 24.197 21.7368 25.1053 21.9734M28.3362 24.6169C28.3362 24.6169 41.1412 10.0298 41.3169 9.66771C41.4926 9.30565 42.4268 8.22818 40.2662 6.60773C38.1056 4.98728 37.323 6.60775 36.9956 6.96705C36.6683 7.32636 29.7503 15.9934 25.1053 21.9734M28.3362 24.6169C28.3362 24.6169 27.474 23.6544 26.8676 23.1483C26.2775 22.6558 25.1053 21.9734 25.1053 21.9734" stroke="white" stroke-width="2"/>
</svg>
