<svg width="48" height="48" viewBox="0 0 48 48" fill="none" xmlns="http://www.w3.org/2000/svg">
<path fill-rule="evenodd" clip-rule="evenodd" d="M25.4473 22.6161V22.5716L25.4186 22.6161H25.4473Z" fill="#DFCBF8"/>
<path fill-rule="evenodd" clip-rule="evenodd" d="M10 12.0629C10 10.9242 10.9533 9.99991 12.1285 9.99991H36.6715C37.8471 9.99991 38.8 10.9242 38.8 12.0629V36.7372C38.8 37.8763 37.8471 38.7999 36.6715 38.7999H12.1285C10.9534 38.7999 10 37.8764 10 36.7376V12.0629ZM18.7522 20.7359V33.7017H14.4425V20.7359H18.7522ZM19.0362 16.726C19.0362 17.9703 18.1008 18.9659 16.5982 18.9659L16.57 18.9658C15.1236 18.9658 14.1885 17.9702 14.1885 16.7259C14.1885 15.4534 15.1518 14.4856 16.6268 14.4856C18.1008 14.4856 19.0081 15.4534 19.0362 16.726ZM25.4469 33.7017H21.1376C21.1376 33.7017 21.1941 21.9527 21.1378 20.7363H25.4473V22.5716C26.0201 21.6883 27.0454 20.4319 29.3313 20.4319C32.1667 20.4319 34.2925 22.2851 34.2925 26.2675V33.7017H29.9833V26.7661C29.9833 25.0229 29.3592 23.834 27.8002 23.834C26.6094 23.834 25.9003 24.6358 25.5889 25.4104C25.475 25.6868 25.4469 26.0748 25.4469 26.4618V33.7017Z" fill="#DFCBF8"/>
</svg>
