<svg width="32" height="32" viewBox="0 0 32 32" fill="none" xmlns="http://www.w3.org/2000/svg">
<path d="M23.6897 30.4482C25.5942 30.4482 27.138 28.9044 27.138 27C27.138 25.0955 25.5942 23.5517 23.6897 23.5517C21.7853 23.5517 20.2415 25.0955 20.2415 27C20.2415 28.9044 21.7853 30.4482 23.6897 30.4482Z" fill="white"/>
<path d="M9.46552 23.5517C13.0363 23.5517 15.931 20.657 15.931 17.0862C15.931 13.5154 13.0363 10.6207 9.46552 10.6207C5.89471 10.6207 3 13.5154 3 17.0862C3 20.657 5.89471 23.5517 9.46552 23.5517Z" fill="white"/>
<path d="M23.2587 10.6207C25.8773 10.6207 28.0001 8.69088 28.0001 6.31034C28.0001 3.92981 25.8773 2 23.2587 2C20.6401 2 18.5173 3.92981 18.5173 6.31034C18.5173 8.69088 20.6401 10.6207 23.2587 10.6207Z" fill="white"/>
<path d="M23.6894 6.31036L9.03442 17.411L23.6896 27" stroke="white" stroke-width="2"/>
</svg>
