<svg width="48" height="48" viewBox="0 0 48 48" fill="none" xmlns="http://www.w3.org/2000/svg">
<rect x="15.1428" y="5" width="16.7143" height="1.34483" fill="#DFCBF8"/>
<rect x="15.1428" y="7.68954" width="16.7143" height="2.68966" fill="#DFCBF8"/>
<rect x="15.1428" y="11.7242" width="16.7143" height="5.37931" fill="#DFCBF8"/>
<path d="M15.1429 18.4483H31.8571V27.8621H43L31.8571 37.2759L23.5 44L15.1429 37.2759L4 27.8621H15.1429V18.4483Z" fill="#DFCBF8"/>
<path d="M16.8574 27.2495C16.8496 26.9565 16.8984 26.6889 17.0039 26.4467C17.1093 26.2045 17.2754 25.9975 17.5019 25.8256C17.7324 25.6537 18.0273 25.5209 18.3867 25.4272C18.75 25.3295 19.1855 25.2807 19.6933 25.2807C20.1972 25.2807 20.6289 25.3295 20.9882 25.4272C21.3515 25.5209 21.6484 25.6537 21.8789 25.8256C22.1093 25.9975 22.2773 26.2045 22.3828 26.4467C22.4882 26.6889 22.5371 26.9565 22.5293 27.2495L22.4589 30.0971C22.455 30.2143 22.4375 30.31 22.4062 30.3842C22.375 30.4545 22.3222 30.5092 22.248 30.5483C22.1738 30.5834 22.0742 30.6069 21.9492 30.6186C21.8281 30.6303 21.6777 30.6362 21.498 30.6362C21.3144 30.6362 21.1621 30.6303 21.041 30.6186C20.9199 30.6069 20.8222 30.5834 20.748 30.5483C20.6777 30.5092 20.6269 30.4545 20.5957 30.3842C20.5644 30.31 20.5468 30.2143 20.5429 30.0971L20.4668 27.0678C20.4629 26.8959 20.4433 26.7592 20.4082 26.6577C20.373 26.5561 20.3222 26.478 20.2558 26.4233C20.1933 26.3686 20.1152 26.3334 20.0214 26.3178C19.9277 26.2983 19.8183 26.2885 19.6933 26.2885C19.5683 26.2885 19.4589 26.2983 19.3652 26.3178C19.2714 26.3334 19.1914 26.3686 19.125 26.4233C19.0625 26.478 19.0136 26.5561 18.9785 26.6577C18.9433 26.7592 18.9238 26.8959 18.9199 27.0678L18.75 33.5131C18.7461 33.6772 18.7597 33.8139 18.791 33.9233C18.8261 34.0327 18.8808 34.1205 18.955 34.187C19.0332 34.2495 19.1328 34.2944 19.2539 34.3217C19.375 34.3491 19.5214 34.3627 19.6933 34.3627C19.8652 34.3627 20.0117 34.3491 20.1328 34.3217C20.2578 34.2944 20.3574 34.2495 20.4316 34.187C20.5097 34.1205 20.5644 34.0327 20.5957 33.9233C20.6269 33.8139 20.6406 33.6772 20.6367 33.5131L20.6132 32.8159C20.6093 32.6987 20.6211 32.6049 20.6484 32.5346C20.6797 32.4604 20.7304 32.4057 20.8007 32.3705C20.875 32.3315 20.9726 32.3061 21.0937 32.2944C21.2148 32.2827 21.3652 32.2768 21.5449 32.2768C21.7207 32.2768 21.8632 32.2827 21.9726 32.2944C22.0859 32.3061 22.1718 32.3315 22.2304 32.3705C22.2929 32.4057 22.3339 32.4604 22.3535 32.5346C22.373 32.6049 22.3808 32.6987 22.3769 32.8159L22.3593 33.4721C22.3515 33.726 22.2968 33.9662 22.1953 34.1928C22.0937 34.4155 21.9355 34.6108 21.7207 34.7787C21.5097 34.9467 21.2363 35.0795 20.9004 35.1772C20.5683 35.2709 20.166 35.3178 19.6933 35.3178C19.2207 35.3178 18.8164 35.269 18.4804 35.1713C18.1445 35.0737 17.8691 34.9409 17.6543 34.7729C17.4433 34.6049 17.2871 34.4077 17.1855 34.1811C17.0839 33.9545 17.0293 33.7143 17.0214 33.4604L16.8574 27.2495ZM23.373 25.8315C23.3496 25.7338 23.3476 25.6537 23.3672 25.5912C23.3906 25.5287 23.4394 25.4799 23.5136 25.4448C23.5918 25.4057 23.7011 25.3803 23.8418 25.3686C23.9824 25.353 24.1621 25.3452 24.3808 25.3452C24.6269 25.3452 24.8203 25.353 24.9609 25.3686C25.1054 25.3803 25.2148 25.4037 25.289 25.4389C25.3672 25.4741 25.4199 25.5248 25.4472 25.5912C25.4746 25.6537 25.4941 25.7338 25.5058 25.8315L26.4082 32.9096H26.5957L27.4746 25.8315C27.4863 25.7338 27.5039 25.6537 27.5273 25.5912C27.5547 25.5248 27.6035 25.4741 27.6738 25.4389C27.748 25.4037 27.8515 25.3803 27.9843 25.3686C28.1211 25.353 28.3066 25.3452 28.541 25.3452C28.7597 25.3452 28.9394 25.353 29.08 25.3686C29.2207 25.3803 29.3281 25.4057 29.4023 25.4448C29.4804 25.4799 29.5293 25.5287 29.5488 25.5912C29.5683 25.6537 29.5683 25.7338 29.5488 25.8315L27.5976 34.8491C27.5742 34.935 27.5429 35.0053 27.5039 35.06C27.4687 35.1108 27.4121 35.1498 27.3339 35.1772C27.2558 35.2045 27.1504 35.2241 27.0175 35.2358C26.8886 35.2436 26.7207 35.2475 26.5136 35.2475C26.2949 35.2475 26.1172 35.2436 25.9804 35.2358C25.8437 35.2241 25.7343 35.2045 25.6523 35.1772C25.5703 35.1498 25.5078 35.1108 25.4648 35.06C25.4257 35.0053 25.3945 34.935 25.3711 34.8491L23.373 25.8315Z" fill="white"/>
</svg>
