<svg width="48" height="48" viewBox="0 0 48 48" fill="none" xmlns="http://www.w3.org/2000/svg">
<path d="M13 7.99997C13 6.34311 14.3431 4.99997 16 4.99997L31.84 4.99997C33.4969 4.99997 34.84 6.34312 34.84 7.99997V41C34.84 42.6568 33.4969 44 31.84 44H16C14.3431 44 13 42.6568 13 41L13 7.99997Z" fill="white" stroke="#DFCBF8" stroke-width="2" stroke-linecap="round" stroke-linejoin="round"/>
<path d="M15.4788 23.8304C15.4788 24.3826 15.9265 24.8304 16.4788 24.8304H31.8303C32.3826 24.8304 32.8303 24.3826 32.8303 23.8304V10.1313C32.8303 9.57903 32.3826 9.13132 31.8303 9.13132H28.4924H26.3235L24.1545 9.13132H21.9856H19.8167H16.4788C15.9265 9.13132 15.4788 9.57903 15.4788 10.1313V23.8304Z" fill="#DFCBF8"/>
<rect x="21.2632" y="6.65256" width="6.61012" height="1.65253" rx="0.826265" fill="#DFCBF8"/>
<circle cx="24.1542" cy="41.7687" r="0.413132" fill="#DFCBF8"/>
<rect x="15.4788" y="26.4828" width="17.3516" height="13.2202" rx="1" fill="#DFCBF8"/>
</svg>
