<svg width="48" height="48" viewBox="0 0 48 48" fill="none" xmlns="http://www.w3.org/2000/svg">
<path d="M38 34.9999L10 34.9999M38 34.9999L38 16.5999M38 34.9999L27.3939 26.1833M10 34.9999L10 16.5999M10 34.9999L20.6061 26.1833M10 16.5999L38 16.5999M10 16.5999L24 29.2499M10 16.5999L20.6061 26.1833M38 16.5999L24 29.2499M38 16.5999L27.3939 26.1833M27.3939 26.1833L24 29.2499M24 29.2499L20.6061 26.1833" stroke="#DFCBF8" stroke-width="2.4" stroke-linejoin="round"/>
<rect x="26.8761" y="22.0757" width="5.75172" height="0.248276" transform="rotate(-180 26.8761 22.0757)" fill="#DFCBF8" stroke="#DFCBF8" stroke-width="0.248276"/>
<rect x="26.752" y="20.9586" width="5.50345" height="0.496552" transform="rotate(-180 26.752 20.9586)" fill="#DFCBF8" stroke="#DFCBF8" stroke-width="0.496552"/>
<rect x="26.5037" y="19.2206" width="5.0069" height="0.993104" transform="rotate(-180 26.5037 19.2206)" fill="#DFCBF8" stroke="#DFCBF8" stroke-width="0.993104"/>
<path d="M26.6767 10.664L29.6624 13.2585L27.0001 13.2585L26.5001 13.2585L26.5001 13.7585L26.5001 16.7344L21.5001 16.7344L21.5001 13.7585L21.5001 13.2585L21.0001 13.2585L18.3378 13.2585L21.3236 10.664L24.0001 8.44891L26.6767 10.664Z" fill="#DFCBF8" stroke="#DFCBF8"/>
</svg>
